<?xml version="1.0" encoding="utf-8"?>
<!-- Generator: Adobe Illustrator 24.0.3, SVG Export Plug-In . SVG Version: 6.00 Build 0)  -->
<svg version="1.1" id="レイヤー_1" xmlns="http://www.w3.org/2000/svg" xmlns:xlink="http://www.w3.org/1999/xlink" x="0px"
	 y="0px" viewBox="0 0 105 18.4" style="enable-background:new 0 0 105 18.4;" xml:space="preserve">
<style type="text/css">
	.st0{fill:#C11EFF;}
</style>
<g>
	<path class="st0" d="M5.1,0h6.3v1.6h-6c-2.1,0-3.5,0.2-3.5,2.7v9.7c0,2.6,1.3,2.6,3.5,2.6h6v1.7H5.1c-2.9,0-5.1-0.8-5.1-4V4.1
		C0,0.8,2.3,0,5.1,0z"/>
	<path class="st0" d="M26.9,4.3v9.8c0,3.7-2.9,4.2-4.6,4.2h-3.4c-1.7,0-4.5-0.6-4.5-4.2V4.3c0-3.7,2.9-4.3,4.5-4.3h3.4
		C24.1,0,26.9,0.6,26.9,4.3z M22.4,1.7h-3.5c-1.8,0-2.6,0.8-2.6,2.6v9.8c0,2.6,1.7,2.6,2.6,2.6h3.5c0.9,0,2.6,0,2.6-2.6V4.3
		C25,2.5,24.3,1.7,22.4,1.7z"/>
	<path class="st0" d="M44.1,18.4h-2.6L33.1,2.9v15.5h-1.9V0h2.3l8.6,16V0h1.9V18.4z"/>
	<path class="st0" d="M59.6,1.7h-5.5v16.7h-1.9V1.6h-5.5V0h12.8V1.7z"/>
	<path class="st0" d="M60.9,18.3L67.4,0H70l6.5,18.3h-2.1l-2-5.9h-7.5l-2,5.9H60.9z M65.5,10.9h6.4l-3.2-9.6L65.5,10.9z"/>
	<path class="st0" d="M84.5,0h6.3v1.6h-6c-2.1,0-3.5,0.2-3.5,2.7v9.7c0,2.6,1.3,2.6,3.5,2.6h6v1.7h-6.3c-2.9,0-5.1-0.8-5.1-4V4.1
		C79.4,0.8,81.6,0,84.5,0z"/>
	<path class="st0" d="M105,1.7h-5.5v16.7h-1.9V1.6h-5.5V0H105V1.7z"/>
</g>
</svg>
