<?xml version="1.0" encoding="utf-8"?>
<!-- Generator: Adobe Illustrator 24.0.3, SVG Export Plug-In . SVG Version: 6.00 Build 0)  -->
<svg version="1.1" id="レイヤー_1" xmlns="http://www.w3.org/2000/svg" xmlns:xlink="http://www.w3.org/1999/xlink" x="0px"
	 y="0px" viewBox="0 0 284.4 23.5" style="enable-background:new 0 0 284.4 23.5;" xml:space="preserve">
<style type="text/css">
	.st0{fill:#FFFFFF;}
</style>
<g>
	<path class="st0" d="M5.1,1h6.3v1.6h-6c-2.1,0-3.5,0.2-3.5,2.7V15c0,2.6,1.3,2.6,3.5,2.6h6v1.7H5.1c-2.9,0-5.1-0.8-5.1-4V5
		C0,1.8,2.3,1,5.1,1z"/>
	<path class="st0" d="M22.5,19.3H19c-1.7,0-4.5-0.6-4.5-4.2V1h1.9v14.1c0,2.6,1.7,2.6,2.6,2.6h3.5c0.9,0,2.6,0,2.6-2.6V1H27v14.1
		C27,18.7,24.2,19.3,22.5,19.3z"/>
	<path class="st0" d="M38.7,1c3,0,4.6,1.8,4.6,4.8c0,1.6-0.6,3.3-2.1,4.1c1.7,0.6,2.3,2.4,2.3,4.2c0,3.3-1,5.3-4.6,5.3h-7.7V1H38.7z
		 M41.4,5.8c0-2-0.9-3.2-2.9-3.2h-5.2v6.6h5.6C40.5,9.2,41.4,7.3,41.4,5.8z M41.6,14.1c0-1.6-0.8-3.2-2.6-3.2h-5.8v6.9H39
		C41.4,17.7,41.6,16.1,41.6,14.1z"/>
	<path class="st0" d="M59.5,2.6h-10v6.5H58v1.6h-8.5v7.1h10v1.6H47.6V1h11.9V2.6z"/>
	<path class="st0" d="M81.5,23.5h-6.8L74.5,22h6.9c1.4,0,1.7-1,1.7-2.3V18c-0.7,0.9-1.7,1.2-2.9,1.2h-2.2c-2.5,0-4.4-0.9-4.4-3.7V9
		c0-2.1,1-3.1,2.3-3.5c0.7-0.2,1.4-0.3,2.2-0.3c0.8,0,1.6,0,2.4,0c2.5,0,4.4,1.1,4.4,3.8v10.8C85.1,22,84,23.5,81.5,23.5z M80.7,6.7
		h-2.1c-1.9,0-2.9,0.3-2.9,2.5v6.1c0,1.8,0.7,2.4,2.5,2.4h1.7c1.9,0,3.3-0.6,3.3-2.8V9.2C83.2,7.3,82.4,6.7,80.7,6.7z"/>
	<path class="st0" d="M91.7,7.4c0.3-0.4,0.6-0.8,1-1.1c0.8-0.6,1.8-1.2,3.4-1.2h0.4v1.6h-0.4c-1.3,0-2.1,0.3-2.8,0.9
		c-0.4,0.3-0.7,0.6-1,1.1c-0.4,0.4-0.8,0.9-1.2,1.5v9.1h-1.9V5.2h1.6l0.2,3.4L91.7,7.4z"/>
	<path class="st0" d="M109.5,9.2v6.1c0,2.7-1.7,4-4.9,4h-1.2c-3.2,0-4.9-1.3-4.9-4V9.2c0-2.7,1.6-4,4.9-4h1.2
		C107.8,5.2,109.5,6.5,109.5,9.2z M104.6,6.8h-1.3c-1.7,0-2.9,0.2-2.9,2.4v5.8c0,2.4,1.4,2.6,2.9,2.6h1.3c1.7,0,3-0.2,3-2.4v-6
		C107.6,7,106.4,6.8,104.6,6.8z"/>
	<path class="st0" d="M118.6,19.3h-1.2c-3.2,0-4.9-1.3-4.9-4V5.2h1.9v9.9c0,2.4,1.4,2.6,2.9,2.6h1.3c1.7,0,3-0.2,3-2.4V5.2h1.9v10.2
		C123.5,18,121.8,19.3,118.6,19.3z"/>
	<path class="st0" d="M137.9,9v6.5c0,2.5-1.7,3.9-4.9,3.9h-4.2v4.2H127V9c0-2.5,1.6-3.8,4.9-3.8h1.2C136.3,5.2,137.9,6.4,137.9,9z
		 M133.1,6.8h-1.2c-1.8,0-3,0.2-3,2.4v8.6h4.2c1.6,0,2.9-0.3,2.9-2.5V9.2C136,7,134.8,6.8,133.1,6.8z"/>
	<path class="st0" d="M160.2,6.9h-5.7v5.8h-1.8V6.9h-4.2V5.2h4.2V0.1h1.8v5.1h5.7v-5h1.8v5h4.4v1.7h-4.4c0,5.7-1,8.1-5.2,13
		l-1.4-1.2C159.5,14.1,160.2,12,160.2,6.9z"/>
	<path class="st0" d="M183.1,7.2v12.6h-1.9V8.7c-1.8,1.3-3.9,2.7-7.1,4.8l-1-1.5c8.4-5.4,12.6-7.8,12.6-11.5h1.8
		C187.6,2.9,186.3,4.9,183.1,7.2z"/>
	<path class="st0" d="M212.3,12.2l-1.1,1.6c-2.9-2.1-5.3-3.5-7.9-4.9v10.8h-1.8V0h1.8v7.1C206.3,8.5,209.1,10.2,212.3,12.2z"/>
	<path class="st0" d="M225,18.1l-1.5,1.1c-1.6-2.1-1.8-2.8-1.8-5.7v-12h1.7v12C223.4,16.2,223.6,16.4,225,18.1z M232.3,16.5h5.2v1.8
		h-5.4c-3.7,0-4.7-2.3-4.4-6.1h1.8C229.4,15.2,229.8,16.5,232.3,16.5z M228.6,3.6h8.4v1.8h-8.4V3.6z"/>
	<path class="st0" d="M255.3,13.4c1.5,2.9,4.4,4.7,7.5,5.5l-1.1,1.6c-3.1-1.1-5.8-2.9-7.3-5.9c-0.8,3.5-3.6,5.3-6.9,6.3l-1-1.5
		c3.3-0.6,6.1-2.4,6.7-6h-6c-0.2,2.8-0.7,4.9-2.4,7.3l-1.3-1.3c2.1-2.6,2.1-6.6,2.1-9.8V4.1h15.7v5.3h-6.4v2.5h8v1.5H255.3z
		 M244,0.3h18.7v1.5H244V0.3z M247.1,11.9h6.1V9.4h-6C247.2,10.1,247.2,11.2,247.1,11.9z M259.6,5.4h-12.4V8h12.4V5.4z"/>
	<path class="st0" d="M282.2,9.1c1.6,1,2.3,2.5,2.1,4.7c-0.2,2.4-1.7,4.3-4.3,5.2c-2.3,0.8-5.9,0.9-7.5-0.8
		c-1.7-1.7-0.5-4.2,1.9-4.2c2,0,3.8,1.4,4.6,3.6c0.8-0.1,3.3-1.2,3.5-4c0.1-1.5-0.3-2.6-1.3-3.2c-2.1-1.3-6.4-0.4-9.6,1.4l-1.1-1.2
		l8.4-8.4h-6.9V0.8h9.6v1.3l-7.2,7.1C277,8.2,280.2,7.8,282.2,9.1z M274.4,15.7c-1.1,0-1.1,1.2-0.3,1.7c1,0.6,2.5,0.7,3.1,0.6
		C276.8,16.8,275.8,15.7,274.4,15.7z"/>
</g>
</svg>
