<?xml version="1.0" encoding="utf-8"?>
<!-- Generator: Adobe Illustrator 24.0.3, SVG Export Plug-In . SVG Version: 6.00 Build 0)  -->
<svg version="1.1" id="レイヤー_1" xmlns="http://www.w3.org/2000/svg" xmlns:xlink="http://www.w3.org/1999/xlink" x="0px"
	 y="0px" viewBox="0 0 199.7 33.2" style="enable-background:new 0 0 199.7 33.2;" xml:space="preserve">
<path d="M24.7,11.4c-1.7-2.3-4.5-3.5-7.4-3.5c-5.1,0-8.6,3.8-8.6,8.7c0,5,3.5,8.6,8.7,8.6c2.7,0,5.5-1.3,7.2-3.3v9.8
	c-2.8,0.8-4.8,1.5-7.4,1.5c-4.5,0-8.8-1.7-12.1-4.6C1.6,25.4,0,21.3,0,16.6c0-4.3,1.7-8.4,4.7-11.5C7.9,1.9,12.5,0,17,0
	c2.7,0,5.2,0.6,7.7,1.6V11.4z"/>
<path d="M55.7,0.8v17.7c0,4-0.2,8.1-3.4,11.1c-2.7,2.6-6.9,3.5-10.7,3.5c-3.8,0-8-0.9-10.7-3.5c-3.2-3-3.4-7.1-3.4-11.1V0.8h8.4
	v16.6c0,4.1,0.3,8.6,5.7,8.6c5.4,0,5.7-4.5,5.7-8.6V0.8H55.7z"/>
<path d="M76.9,16.5c2.6-1.3,3.6-4.6,3.6-7.5c0-6-3.9-8.2-9.6-8.2h-12v15.7v15.7h12c5.7,0,9.6-2.2,9.6-8.2
	C80.4,21.1,79.5,17.8,76.9,16.5z M67.2,7.1h0.6c2.3,0,4.9,0.2,4.9,3c0,2.7-2.3,3-4.5,3h-0.9V7.1z M67.8,25.9h-0.6v-6.1h0.9
	c2.2,0,4.5,0.4,4.5,3C72.7,25.7,70.1,25.9,67.8,25.9z"/>
<path d="M91.2,7.8V13h9.5V20h-9.5v5.4h10v6.9H82.9V0.8h18.3v6.9H91.2z"/>
<path d="M127.3,21.9c-0.1,2.8-0.3,5.1-2,7.5c-1.9,2.6-4.8,3.7-8,3.7c-6.1,0-10.4-4.1-10.4-10c0-6.2,4.3-10.2,10.5-10.2
	c4,0,7.1,1.8,8.8,5.3l-4.8,2c-0.7-1.8-2.2-3-4.2-3c-3.3,0-5,3.1-5,6c0,2.9,1.8,5.9,5.1,5.9c2.2,0,3.9-1.1,4.1-3.3h-4.1v-3.9H127.3z"
	/>
<path d="M144.7,32.5h-6.3l-4.8-7.3h-0.1v7.3h-5v-19h7.5c3.8,0,6.7,1.8,6.7,5.8c0,2.6-1.5,4.9-4.2,5.4L144.7,32.5z M133.6,22.1h0.5
	c1.6,0,3.5-0.3,3.5-2.4c0-2.1-1.9-2.4-3.5-2.4h-0.5V22.1z"/>
<path d="M165.1,22.7c0,6.1-4.5,10.5-10.7,10.5c-6.2,0-10.7-4.3-10.7-10.5c0-5.7,5.2-9.8,10.7-9.8C159.9,12.9,165.1,17,165.1,22.7z
	 M148.8,22.7c0,3.3,2.5,5.7,5.5,5.7c3,0,5.5-2.4,5.5-5.7c0-2.6-2.5-5-5.5-5C151.3,17.7,148.8,20.1,148.8,22.7z"/>
<path d="M183.2,13.6v10.7c0,2.4-0.1,4.9-2,6.7c-1.6,1.6-4.2,2.1-6.4,2.1c-2.3,0-4.8-0.6-6.4-2.1c-1.9-1.8-2-4.3-2-6.7V13.6h5v10
	c0,2.5,0.2,5.2,3.4,5.2c3.2,0,3.4-2.7,3.4-5.2v-10H183.2z"/>
<path d="M184.9,13.6h7.7c4.2,0,7.1,1.9,7.1,6.2c0,4.5-2.5,6.4-6.9,6.4h-2.9v6.3h-5V13.6z M189.9,22.3h0.9c1.8,0,3.6,0,3.6-2.3
	c0-2.4-1.7-2.4-3.6-2.4h-0.9V22.3z"/>
</svg>
