<?xml version="1.0" encoding="utf-8"?>
<!-- Generator: Adobe Illustrator 24.0.3, SVG Export Plug-In . SVG Version: 6.00 Build 0)  -->
<svg version="1.1" id="レイヤー_1" xmlns="http://www.w3.org/2000/svg" xmlns:xlink="http://www.w3.org/1999/xlink" x="0px"
	 y="0px" viewBox="0 0 307.5 36.2" style="enable-background:new 0 0 307.5 36.2;" xml:space="preserve">
<style type="text/css">
	.st0{fill:#9D005D;}
</style>
<g>
	<g>
		<path class="st0" d="M20.8,10.7h-9.7c-1.7,3.2-4,5.6-9.3,9.2L0,17.6C9.6,10.7,9.7,7.2,9.7,1.8h3.2c0,3.2-0.2,4.5-0.6,6H24v2.7
			c0,8.5-5.4,15.2-19.7,24.2l-1.8-2.5C15.7,23.9,20.7,18,20.8,10.7z"/>
		<path class="st0" d="M50.2,35l-1.9-2.5c10.1-7.5,12.3-10,12.4-16.8H41v-2.8h22.8v2.8C63.8,24.1,60.5,27.3,50.2,35z M61,3.9v3H43.6
			v-3H61z"/>
		<path class="st0" d="M95.2,13.8v21.1h-3.1V16.3c-3,2.2-6.5,4.5-11.8,8l-1.7-2.6c13.9-9,21-13.1,21-19.2h3.1
			C102.6,6.6,100.5,9.9,95.2,13.8z"/>
		<path class="st0" d="M142.4,9.2v-1h-23.3V5.2h26.5v3.9c0,4.7-3,6.4-9.7,10.2l-1.6-2.7C141.3,12.8,142.4,11.9,142.4,9.2z
			 M129.6,10.6h3.2c0,14.8-1.6,16.4-7.7,23.6l-2.4-2C129,25.1,129.6,24,129.6,10.6z"/>
		<path class="st0" d="M171.6,6.4v3h-11.1v-3H171.6z M161.6,33.2v-3c12.4,0,14.7-4.4,21.8-17.4l2.8,1.6
			C179.4,27.2,176.3,33.2,161.6,33.2z"/>
		<path class="st0" d="M223.6,22.1l-1.8,2.6c-4.8-3.5-8.9-5.8-13.2-8.1v17.9h-3.1V1.8h3.1v11.8C213.8,16,218.5,18.7,223.6,22.1z"/>
		<path class="st0" d="M250.5,4.1V0h2.8v4.1h14.8v2.3h-14.8v2.3H264v6.9h-10.7v2.3h11.3v4.3h4.5v2.4h-4.5v6.2h-2.7V29h-8.6v4.2
			c0,2.4-1.1,2.8-3.4,2.8c-1.4,0-2.9-0.1-4.3-0.2l-0.4-2.9c1.4,0.3,2.8,0.5,4.1,0.5c0.8,0,1.2-0.3,1.2-1.2V29h-12.4v-2.2h12.4v-2.3
			h-15.5v-2.2h15.5v-2.2h-12.4v-2.2h12.4v-2.3H240V8.7h10.5V6.4H236V4.1H250.5z M250.5,10.8h-7.9v2.7h7.9V10.8z M253.3,10.8v2.7h8.1
			v-2.7H253.3z M253.3,22.3h8.6v-2.2h-8.6V22.3z M253.3,26.8h8.6v-2.3h-8.6V26.8z"/>
		<path class="st0" d="M276,21l-1.4-2.6c3.3-5.6,5.3-12.1,6.7-18.5l2.7,0.7c-0.5,2-1.1,4-1.6,6c-0.2,0.3-0.2,0.6-0.3,1l-0.3,1
			c0,0.1,0,0.2-0.1,0.2c-0.1,0.1-0.1,0.2-0.1,0.4V36h-2.6V16C278,17.7,277.1,19.4,276,21z M285.4,36.2l-1.9-2.2
			c3.7-2.8,6.3-6.5,8.1-10.8c-1.4-1.6-2.8-3-4.5-4.2c-0.8,1.6-1.6,3-2.7,4.6l-1.8-2.2c3.2-4.4,4.7-10.8,5.5-16.2h-3.9V2.7h13.6v2.5
			h-7.1c0,0.1,0,0.2,0,0.2c-0.2,1.6-0.4,3-0.7,4.6h5.2l1.5,1.2C295.9,21.1,293.4,29.7,285.4,36.2z M288.1,16.9
			c1.6,1.1,3.1,2.3,4.5,3.7l0.1-0.4c0.7-2.5,1.1-5.1,1.3-7.7h-4.6C289.1,14,288.6,15.4,288.1,16.9z M298.8,5h2.6v22.2h-2.6V5z
			 M304.2,35.7c-1.5,0-3,0-4.5-0.2l-0.6-3c1.6,0.3,3.1,0.4,4.6,0.4c0.8,0,1.1-0.4,1.1-1.2V1.4h2.6v31.1
			C307.5,34.7,306.4,35.7,304.2,35.7z"/>
	</g>
</g>
</svg>
