<?xml version="1.0" encoding="utf-8"?>
<!-- Generator: Adobe Illustrator 24.0.3, SVG Export Plug-In . SVG Version: 6.00 Build 0)  -->
<svg version="1.1" id="レイヤー_1" xmlns="http://www.w3.org/2000/svg" xmlns:xlink="http://www.w3.org/1999/xlink" x="0px"
	 y="0px" viewBox="0 0 93.8 18.7" style="enable-background:new 0 0 93.8 18.7;" xml:space="preserve">
<style type="text/css">
	.st0{fill:#FFFFFF;}
</style>
<g>
	<g>
		<path class="st0" d="M4.6,18.2l-1-1.2c5.1-3.8,6.2-5,6.2-8.4H0V7.1h11.4v1.4C11.4,12.8,9.7,14.4,4.6,18.2z M10,2.6v1.5H1.3V2.6H10
			z"/>
		<path class="st0" d="M27.1,7.6v10.5h-1.6V8.8c-1.5,1.1-3.3,2.2-5.9,4l-0.8-1.3C25.8,7,29.3,5,29.3,1.9h1.5
			C30.8,4,29.8,5.6,27.1,7.6z"/>
		<path class="st0" d="M51.4,5.2c0,5.9-2.8,8.5-8.4,12.6L42,16.5c5.6-4,7.7-6.3,7.8-11h-10V4h11.6V5.2z M50.6,3.1h-1.2V0h1.2V3.1z
			 M53.1,3.1h-1.2V0h1.2V3.1z"/>
		<path class="st0" d="M66,3.2h-2.8v2.4h2.4v13h-1.3v-0.8H59v0.9h-1.3V5.7H60V3.2h-2.7V2H66V3.2z M59.9,12.6L59,11.7v1.5h5.3v-1.8
			h-1.1c-0.7,0-1.1-0.4-1.1-1.1V6.8h-1C61.1,8.7,60.8,10.9,59.9,12.6z M60,6.8h-1v4.9C59.7,10.3,60,8.3,60,6.8z M59,16.6h5.3v-2.3
			H59V16.6z M62.1,3.2h-1v2.4h1V3.2z M63.6,10.3h0.8V6.8h-1.1v3.1C63.2,10.2,63.3,10.3,63.6,10.3z M73.5,17.6
			c-0.3,0.4-0.8,0.5-1.3,0.6c-0.7,0.1-1.5,0.1-2.2,0.1c-0.6,0-2,0-2.6-0.3c-0.5-0.3-0.6-0.9-0.6-1.5V8.3h5.1v-5h-5.4V2h6.7v8.6h-1.3
			V9.5h-3.8V16c0,0.3,0,0.5,0.3,0.7c0.3,0.2,1.4,0.2,1.7,0.2c0.5,0,1.7,0,2.1-0.2c0.5-0.4,0.6-2.9,0.6-3.4l1.4,0.4
			C74.1,14.4,74,16.9,73.5,17.6z"/>
		<path class="st0" d="M77.8,11.2L77,9.9c1.9-2.7,3-5.9,3.7-9l1.4,0.3c-0.3,1.4-0.8,2.9-1.3,4.2v13.3h-1.4V8.5
			C78.9,9.4,78.4,10.3,77.8,11.2z M81.7,4.4h12.1v1.3H81.7V4.4z M84.3,17.7v1h-1.4v-6.5h9.5v6.5H91v-1H84.3z M83.4,1.7h8.5V3h-8.5
			V1.7z M83.4,7h8.5v1.2h-8.5V7z M83.4,9.6h8.5v1.2h-8.5V9.6z M84.3,13.5v3H91v-3H84.3z"/>
	</g>
</g>
<g>
	<g>
		<path class="st0" d="M419.7,16.2l-1.2-1c3.5-4.1,4.2-4.7,4.2-7.1V4.6h1.6V8C424.3,11.2,423.1,12.2,419.7,16.2z M427.9,5.3l1.4-0.8
			c0.7,1.1,2.5,4.5,5,10.6l-1.5,0.6C430.3,9.5,428.3,6,427.9,5.3z M431.4,4.7h-1.2V1.6h1.2V4.7z M433.9,4.7h-1.2V1.6h1.2V4.7z"/>
		<path class="st0" d="M439.1,9h14.7v1.5h-14.7V9z"/>
		<path class="st0" d="M466.2,9.8h-7V8.4h7.1V4.9c-1.2,0.4-2.5,0.6-4.4,0.9l-0.1-1.5c4.6-0.6,7.7-2.2,8.5-2.6l0.7,1.3
			c-1,0.4-1.8,0.9-3.1,1.4v4.1h5.7v1.4h-5.7c-0.1,3.1-0.9,4.9-4,8.3l-1.2-1C465.5,14,466.1,12.5,466.2,9.8z"/>
		<path class="st0" d="M487.6,13.8l-0.5-1.3c2.9-1.1,3.3-1.7,3.4-2.8h-5.2l0.5,8.2h-1.5l-0.5-8.2h-3.5V8.3h3.3l-0.2-3.6h1.5l0.2,3.6
			h6.7v1.2C491.9,11.9,490.2,12.8,487.6,13.8z"/>
		<path class="st0" d="M499.9,17.4l-1.3-0.9c2.8-3.8,3.2-5.3,3.2-9.4V4.7h1.6V7C503.4,11.5,503,13.3,499.9,17.4z M513,11.5l1.3,0.8
			c-2.1,3.9-3.5,5-6.7,5h-1.4V2.8h1.6v13.1C510.1,15.8,511.1,14.9,513,11.5z"/>
		<path class="st0" d="M518.5,11.4l-0.8-1.2c1.9-2.8,3.1-5.9,3.8-9.2l1.4,0.4c-0.4,1.4-0.8,3-1.4,4.4v12.9h-1.4V8.8
			C519.7,9.6,519.1,10.5,518.5,11.4z M534.7,13.8l-1.1,1.4c-2.1-2.2-3.7-4.6-4.7-7.4v5.7h2.5v1.2h-2.5v4h-1.4v-4h-2.4v-1.2h2.5V7.8
			c-0.9,2.9-2.4,5.5-4.6,7.8l-1.1-1.2c2.4-2.1,4-5,5.1-8h-4.3V5.1h4.8V1h1.4v4.1h5.3v1.3h-4.8C530.6,9.3,532.3,11.8,534.7,13.8z"/>
		<path class="st0" d="M538.3,12.3l0.9,0.2c0,1.7-0.2,3.4-0.7,5l-1-0.7C538,15.4,538.2,13.9,538.3,12.3z M544.6,17.7
			c-0.2,0.8-0.8,1-1.6,1c-0.6,0-1.1,0-1.7-0.1l-0.2-1.4c0.6,0.1,1.1,0.2,1.7,0.2c0.4,0,0.6-0.2,0.8-0.6c0.1-0.3,0.1-0.8,0.1-1.2
			l0-0.4l0-0.1l-0.9,0.4h0c-0.2-1.1-0.4-2.2-0.7-3.3l0.8-0.3c0.4,1,0.7,2.1,0.9,3.2c0.1-1.2,0.1-2.4,0.1-3.6v-0.3h-5.4V1.6h6.8v1.2
			h-2.6v1.7h2.1v1.1h-2.1v1.7h2.1v1.1h-2.1v1.8h2.5C545.1,11.5,545.1,16.4,544.6,17.7z M540.7,16.4l-1,0.3h0c0-1.4-0.1-2.8-0.2-4.2
			l0.8-0.1C540.6,13.7,540.7,15.1,540.7,16.4z M539.7,4.4h1.8V2.7h-1.8V4.4z M539.7,7.2h1.8V5.5h-1.8V7.2z M539.7,10.1h1.8V8.3h-1.8
			V10.1z M540.8,12.4l0.8-0.2c0.3,1.2,0.5,2.3,0.7,3.5l-0.9,0.4h0C541.2,14.9,541.1,13.6,540.8,12.4z M554.9,17.2l-0.9,1.4
			c-1.9-1.1-3.3-2.7-4-4.7c-0.6,2.3-2,4-4.2,5.1l-0.8-1.2c2.2-0.9,3.5-2.6,4-4.8h-1.8v0.8H546V8.4h3.3V6.9h-1.8V6.1
			c-0.6,0.6-1.2,1.2-1.9,1.8l-0.8-1.1c2-1.5,3.3-3.6,4.2-5.9h1.5c1,2.2,2.6,4,4.6,5.4l-0.8,1.3c-0.6-0.5-1.3-1.1-1.8-1.7v0.9h-1.9
			v1.5h3.3v5.3h-1.2v-0.8h-1.8C551.6,14.8,553.1,16.3,554.9,17.2z M547.2,11.7h2V9.5h-2V11.7z M549.8,2.3c-0.5,1.2-1.1,2.3-1.9,3.4
			h4.3C551.2,4.6,550.4,3.5,549.8,2.3z M552.6,9.5h-2.1v2.3h2.1V9.5z"/>
	</g>
</g>
<g>
	<g>
		<path class="st0" d="M841.5,15.1h9.5v-9h-9.5V4.6h11.1v11.9h-11.1V15.1z"/>
		<path class="st0" d="M865,3.9v1.5h-5.6V3.9H865z M860,17.3v-1.5c6.2,0,7.4-2.2,10.9-8.7l1.4,0.8C868.8,14.3,867.3,17.3,860,17.3z"
			/>
		<path class="st0" d="M880.4,18.1l-1.1-1c3.3-3.6,3.5-5.1,3.5-8.4h-6.7V7.1h14v1.5h-5.7C884.3,12.3,884.1,14.1,880.4,18.1z
			 M878.2,4.2V2.7h9.7v1.5H878.2z"/>
		<path class="st0" d="M900.9,3.9v1.5h-5.6V3.9H900.9z M895.9,17.3v-1.5c6.2,0,7.4-2.2,10.9-8.7l1.4,0.8
			C904.8,14.3,903.2,17.3,895.9,17.3z"/>
		<path class="st0" d="M914.9,2.9v5.6h-1.5V2.9H914.9z M923.4,4.7V2.9h1.6v1.8c0,6.5-2.4,9-8.8,13.3l-0.9-1.3
			C921.9,12.3,923.4,10,923.4,4.7z M919.3,8.5h-1.5V2.9h1.5V8.5z"/>
		<path class="st0" d="M941.3,6.1h-4.9c-0.8,1.6-2,2.8-4.6,4.6l-0.9-1.2c4.8-3.4,4.8-5.2,4.8-7.9h1.6c0,1.6-0.1,2.3-0.3,3h5.9V6
			c0,4.2-2.7,7.6-9.9,12.1l-0.9-1.3C938.8,12.6,941.3,9.7,941.3,6.1z"/>
		<path class="st0" d="M952.1,2.2v8.7h-1.5V2.2H952.1z M953.3,16.9l0.9,1.3c4.3-3.3,5.4-4.5,5.4-10.9V2.2h-1.6v5.1
			C958.1,13.1,957.2,13.9,953.3,16.9z"/>
		<path class="st0" d="M978.9,4.6v1.4h-5v9.3h6.4v1.4h-14.5v-1.4h6.5V6.1h-5V4.6H978.9z"/>
		<path class="st0" d="M992.5,7.6v10.5h-1.6V8.8c-1.5,1.1-3.3,2.2-5.9,4l-0.8-1.3c7-4.5,10.5-6.5,10.5-9.6h1.5
			C996.2,4,995.1,5.6,992.5,7.6z"/>
		<path class="st0" d="M1006.2,18.1l-1.1-1c3.3-3.6,3.5-5.1,3.5-8.4h-6.7V7.1h14v1.5h-5.7C1010.1,12.3,1009.9,14.1,1006.2,18.1z
			 M1004.1,4.2V2.7h9.7v1.5H1004.1z"/>
		<path class="st0" d="M1026.8,8.8c2.5-1.8,3.3-2.6,3.3-4.1h1.4c0,1.9-0.8,2.9-3.3,4.7v8.7h-1.5v-7.5c-1.1,0.8-2.5,1.7-4.9,3.3
			l-0.8-1.2C1024,10.8,1025.5,9.8,1026.8,8.8z"/>
		<path class="st0" d="M1050.8,5.2c0,5.9-2.8,8.5-8.4,12.6l-1.1-1.2c5.6-4,7.7-6.3,7.8-11h-10V4h11.6V5.2z M1049.9,3.1h-1.2V0h1.2
			V3.1z M1052.4,3.1h-1.2V0h1.2V3.1z"/>
	</g>
</g>
</svg>
