<?xml version="1.0" encoding="utf-8"?>
<!-- Generator: Adobe Illustrator 24.0.3, SVG Export Plug-In . SVG Version: 6.00 Build 0)  -->
<svg version="1.1" id="レイヤー_1" xmlns="http://www.w3.org/2000/svg" xmlns:xlink="http://www.w3.org/1999/xlink" x="0px"
	 y="0px" viewBox="0 0 263.1 82.7" style="enable-background:new 0 0 263.1 82.7;" xml:space="preserve">
<style type="text/css">
	.st0{fill:#9D005D;}
</style>
<g>
	<g>
		<path d="M23.6,30.3c-2.2-2.5-2.1-5.8-1.7-8.7H25c-0.5,3.3-0.2,5.4,0.9,6.8c1,1.2,3.1,1.8,5.9,1.8h13v3h-13
			C27.9,33.2,25.2,32.3,23.6,30.3z M23.9,5.8l1.6-2.6c4.7,2.8,6.3,3.2,18.9,3.2v3C31.7,9.4,29.4,9,23.9,5.8z"/>
		<path d="M82.2,34.3c-1.4,0-2.7-0.3-3.9-0.8c-2.2-1-3.5-3.3-3.5-6.8v-3.6c0-1.8-0.5-2.5-2.2-2.5h-4.5l-5.6,13.5l-2.7-1.1L72.4,2.4
			l2.7,1.1L69.3,18h3.4c3.4,0,5.4,1.8,5.4,5.4v3.7c0,2.7,0.8,3.5,1.6,3.8c0.8,0.4,1.7,0.5,2.8,0.5c1.4,0,3-0.3,4.7-0.6v2.8
			C85.6,34,83.5,34.3,82.2,34.3z"/>
		<path d="M105.4,9.3h-5V6.5h5.9c0.6-2.2,1.1-4.2,1.4-5.2l2.9,0.7c-0.2,0.8-0.7,2.5-1.2,4.6h5.3v2.8h-6.2c-2,6.7-4.6,13-7.7,18.8
			l-2.6-1.5C101,21.3,103.5,15.5,105.4,9.3z M120.9,20.8v5c2.4,0.9,4.5,2.1,7.5,3.9l-1.4,2.4c-2.8-1.7-4.3-2.5-6.1-3.4
			c0,4-2.1,5.8-5.8,5.8c-3.7,0-8.3-2.6-6.9-6.7c0.6-1.8,2.5-3,5.3-3.3c1.7-0.2,2.6-0.1,4.5,0.3v-4.2c0-2.7,0.6-4.3,1.8-5.6
			c-4.2,0-5.1,0.4-7.5,1.9l-1.5-2.2c2.7-1.6,4.4-2.2,7.1-2.1l9,0.2v2.3h-2.7C122.2,15.2,120.8,17,120.9,20.8z M114.9,27.2
			c-0.7,0-1.7,0.1-2.5,0.4c-1,0.4-1.6,1.1-1.6,1.8c0,2.1,3.6,2.5,4.4,2.5c2.4,0,3-1.3,3-3.4v-0.8C116.9,27.3,115.8,27.2,114.9,27.2z
			"/>
		<path class="st0" d="M156.8,16.6c3,0,5.3,0.9,6.9,2.8c2.8,3.3,2.7,8.3-0.3,11.6c-2.8,3-7.6,2.8-10.2,2.8v-2.7
			c3.6,0.1,6.5-0.5,7.9-2.1c2-2.2,2.1-5.5,0.3-7.6c-1.2-1.4-3-2.2-5.2-2.2c-1.8,0-4.9,0.6-6.5,1.7V29c0,1.8-0.6,3.1-1.6,3.9
			c-1.2,0.8-2.8,0.8-4.1,0.3c-2.1-0.8-4-3-4.1-5.6c0-1.7,0.6-3.3,1.9-4.6c1.5-1.4,3-2.6,5-3.7v-8.8h-6.1V7.8h6.1V2.5h2.9v5.2h5.5
			v2.8h-5.5v7.6C151.3,17.1,154.8,16.6,156.8,16.6z M143,26.4c-0.6,1.9,0.6,3.7,2,4.2c1.4,0.5,1.8-0.1,1.8-1.5v-6.6
			C145.1,23.5,143.5,24.7,143,26.4z M157.3,13.2v-2.7c5.9,0,7.1,0.3,10.3,3.6l-2.2,1.9C163,13.7,162.7,13.2,157.3,13.2z"/>
		<path class="st0" d="M177.1,8.9l2.4,0.5c-0.1,3.9-0.4,7.8-1.4,11.6l-2.4-1.4h0C176.6,16.2,176.9,12.6,177.1,8.9z M180.6,0h2.7v36
			h-2.7V0z M183.7,8.9l2-1.1c1,2.3,1.8,4.5,2.4,6.8l-2.1,1.5h-0.1C185.3,13.7,184.7,11.3,183.7,8.9z M187.5,4.2l2.4-1.3
			c1.7,2.8,3,5.8,4,8.8l-2.7,1.2h-0.1C190.3,9.9,189,7,187.5,4.2z M208.2,36h-2.7v-2h-14.9v2H188V15.2h2.7v16.3h14.9V15.2h2.7V36z
			 M196.9,22.8c-1.6-1.6-3.2-3-5-4.3l1.8-1.8c1.6,1.2,3.1,2.4,4.6,3.8c1-1.9,1.7-3.8,2.3-5.9l2.5,1.1c-0.8,2.3-1.7,4.5-2.8,6.6h0
			c1.6,1.5,3,3,4.4,4.5l-1.8,2.4c-1.4-1.6-2.7-3.2-4.1-4.6c-1.5,2.3-3.5,4.2-5.7,5.9l-1.8-2.1C193.4,26.9,195.3,25,196.9,22.8z
			 M194.1,1.9l2.6-0.9c1.3,3,2.4,5.9,3.1,8.9L197,11h-0.1C196.3,7.8,195.4,4.8,194.1,1.9z M205.7,0.8l3,1.2c-1.4,3.9-3,7.6-5.2,11.2
			l-2.4-1.1h0C203,8.6,204.5,4.8,205.7,0.8z"/>
		<path class="st0" d="M232.6,17.9c2.4,0.2,5.5,0.5,8.2,1c0-1.2,0.1-7.3,0.1-7.3h3.1c0,0,0,6.6-0.1,7.9c2.6,0.5,4.6,1.1,4.6,1.1
			l-0.5,2.6l-4.4-1c-0.8,4.4-2.5,8-6.1,12.6l-2.4-1.8c3.4-4.2,4.8-7.4,5.5-11.4c-2.9-0.6-5.9-0.9-8.8-1c-1.7,5.2-3.6,8.1-5.9,9.2
			c-1.8,0.9-3.9,0.8-5.3-0.5c-1.4-1.3-2.1-3-1.6-5.2c1.2-6,8.5-6.1,10.7-6.1c0.9-3.5,1.6-7.7,1.7-11H223V4h11.2
			C234.2,8.1,233.8,12.7,232.6,17.9z M228.6,20.5c-2,0.2-6.4,0.7-6.9,4.2c-0.2,1.8,0.9,2.9,2.6,2.4
			C225.8,26.6,227.2,24.3,228.6,20.5z"/>
		<path d="M21,78c2-1.4,3.2-3.9,3.2-6.3c0-2.8-1.6-5.6-4.1-7c-1.6,6.8-5.4,12.2-10.5,14.8c-2.2,1.1-4.2,1.4-6.1,0.5
			c-1.1-0.5-2.6-1.6-3.2-3.9c-1-3.7,0.8-7.5,3-10.1c2.7-2.4,3.5-2.9,5.4-3.6V57H2.9v-2.6h5.7v-4.6h3v4.6h9.5V57h-9.5v4.6
			c1.3-0.2,2.6-0.4,3.8-0.4c0.8,0,1.6,0.1,2.4,0.2c0.1-1,0.1-2,0.1-2h3c0,0.6-0.1,1.6-0.2,2.8c4,1.7,6.5,5.2,6.5,9.5
			c0,3.2-1.5,6.2-4,8.2c-2,1.7-4.7,2.5-8.1,2.5h-0.1v-2.6C17.1,79.6,19.1,79.4,21,78z M6.2,67.1c-2.1,1.9-3.9,5.5-3.2,8.2
			c0.3,1.1,0.9,1.9,1.6,2.2c1.1,0.5,2.6,0.3,3.9-0.5V65.4C7.7,66,6.9,66.5,6.2,67.1z M17.3,63.9c-1.6-0.2-3.7-0.2-5.8,0.4v10.6
			C14.3,72.1,16.5,68.2,17.3,63.9z"/>
		<path d="M56.5,50.8c4.5,0.6,6.9,4.3,6.9,11.4c0,4.2-0.3,8.5-2.3,12.3c-1.7,3.2-3.7,5.4-6.2,8.2l-2.3-2c2.3-2.6,4-4.4,5.6-7.4
			c2-3.5,2.1-7.5,2.1-11.1c0-5.2-1.6-8.5-4.2-8.8c-2.6-0.5-4.6,2.6-6.3,6c-1.7,3.3-3,6.6-3.4,11h-2.7V50.8h2.8V61
			C48.5,55.1,51.9,50.2,56.5,50.8z"/>
		<path d="M95.9,75.6c-0.1,4.4-1.9,6.5-6.1,6.5c-4.4,0-8.6-2.6-7.1-7c0.6-1.8,2.6-3.1,5.5-3.4c1.4-0.2,3-0.2,4.8,0.2v-7h-9.9v-2.7
			h9.9v-6H82.6v-2.8h10.4v-4.8h2.9v4.8h9.3v2.8h-9.3v6h8.7v2.7h-8.7v7.8c4,1.4,6.9,3.4,9.9,5.5l-1.8,2.3
			C100.2,77.7,98.2,76.6,95.9,75.6z M88.5,74.7c-1.2,0.2-2.8,0.8-3,1.9c-0.4,1.7,2.2,2.7,4.2,2.7c2.9,0,3.2-1.4,3.2-4.3
			C91.3,74.6,89.5,74.6,88.5,74.7z"/>
		<path d="M137.9,73l-2.4-1.8c3-3.7,2.6-3.8,2.6-8.8h-10.3V73c0,2.7,1.6,4.7,4.2,5.2c3.3,0.6,6.9,0.2,11.9-0.7v2.7l0,0
			c-4.4,1.2-8.9,1.4-12.4,0.7c-4.1-0.8-6.7-3.8-6.7-8V62.4h-7.2v-2.7h7.2v-8.7h3v8.7h10.3v-8.7h3v8.7h7.1v2.7h-7.1
			C141.1,67.6,141.4,68.6,137.9,73z"/>
		<path d="M182,82.3c-1.4,0-2.7-0.3-3.9-0.8c-2.2-1-3.5-3.3-3.5-6.8v-3.6c0-1.8-0.5-2.5-2.2-2.5H168l-5.6,13.5l-2.7-1.1l12.5-30.7
			l2.7,1.1L169.1,66h3.4c3.4,0,5.4,1.8,5.4,5.4v3.7c0,2.7,0.8,3.5,1.6,3.8c0.8,0.4,1.7,0.5,2.8,0.5c1.4,0,3-0.3,4.7-0.6v2.8
			C185.5,82,183.3,82.3,182,82.3z"/>
		<path d="M205.3,61.2h-6.3v-2.7h6.3v-8.9h3v8.9h2.6c2.7,0,6.4,0.5,7.9,4.9c0.5,1.6,0.7,3.4,0.7,6.8c0,3.3-0.2,5-0.7,6.7
			c-1.5,4.5-5,4.8-9.1,4.8v-2.8c5,0,5.6-1.1,6.2-3c0.4-1.1,0.6-2.4,0.6-5.7c0-3.5-0.2-4.8-0.6-5.8c-0.6-1.8-1.6-3.1-4.9-3.1h-2.6
			c-0.2,8.3-1.5,10.4-6.3,20l-2.7-1.3C204.2,70.3,205.2,68.7,205.3,61.2z M221.7,57.6l2.1-2c4.7,3.6,5.2,6.1,5.2,15.3h-3
			C226,61.7,225.3,60.7,221.7,57.6z"/>
		<path d="M253.4,49.2c5.1,0,9.6,2.9,9.6,8.4c0,3.4-2,5.8-4.6,7.6c-1.6,1.1-2.9,2.4-3.6,4.2c-0.4,1.3-0.5,2.7-0.5,4.1h-3.4
			c0-1.9,0.2-4.3,1.2-6c1.1-2,2.9-3.4,4.7-4.7c1.8-1.3,2.9-2.8,2.9-5.2c0-3.8-2.9-5.4-6.2-5.4c-4.5,0-6.7,3.2-6.9,7.4H243
			C243.4,53.5,247,49.2,253.4,49.2z M250.4,77.2h4.4v4.6h-4.4V77.2z"/>
	</g>
</g>
</svg>
