<?xml version="1.0" encoding="utf-8"?>
<!-- Generator: Adobe Illustrator 24.0.3, SVG Export Plug-In . SVG Version: 6.00 Build 0)  -->
<svg version="1.1" id="レイヤー_1" xmlns="http://www.w3.org/2000/svg" xmlns:xlink="http://www.w3.org/1999/xlink" x="0px"
	 y="0px" viewBox="0 0 210.9 18.2" style="enable-background:new 0 0 210.9 18.2;" xml:space="preserve">
<style type="text/css">
	.st0{fill:#FFFFFF;}
</style>
<g>
	<g>
		<path class="st0" d="M-836.9,18.2l-1-1.2c5.1-3.8,6.2-5,6.2-8.4h-9.8V7.1h11.4v1.4C-830.1,12.8-831.8,14.4-836.9,18.2z
			 M-831.5,2.6v1.5h-8.7V2.6H-831.5z"/>
		<path class="st0" d="M-814.4,7.6v10.5h-1.6V8.8c-1.5,1.1-3.3,2.2-5.9,4l-0.8-1.3c7-4.5,10.5-6.5,10.5-9.6h1.5
			C-810.7,4-811.7,5.6-814.4,7.6z"/>
		<path class="st0" d="M-790.1,5.2c0,5.9-2.8,8.5-8.4,12.6l-1.1-1.2c5.6-4,7.7-6.3,7.8-11h-10V4h11.6V5.2z M-790.9,3.1h-1.2V0h1.2
			V3.1z M-788.4,3.1h-1.2V0h1.2V3.1z"/>
		<path class="st0" d="M-775.5,3.2h-2.8v2.4h2.4v13h-1.3v-0.8h-5.3v0.9h-1.3V5.7h2.2V3.2h-2.7V2h8.8V3.2z M-781.6,12.6l-0.8-0.9v1.5
			h5.3v-1.8h-1.1c-0.7,0-1.1-0.4-1.1-1.1V6.8h-1C-780.4,8.7-780.7,10.9-781.6,12.6z M-781.5,6.8h-1v4.9
			C-781.8,10.3-781.5,8.3-781.5,6.8z M-782.5,16.6h5.3v-2.3h-5.3V16.6z M-779.4,3.2h-1v2.4h1V3.2z M-777.9,10.3h0.8V6.8h-1.1v3.1
			C-778.3,10.2-778.2,10.3-777.9,10.3z M-768,17.6c-0.3,0.4-0.8,0.5-1.3,0.6c-0.7,0.1-1.5,0.1-2.2,0.1c-0.6,0-2,0-2.6-0.3
			c-0.5-0.3-0.6-0.9-0.6-1.5V8.3h5.1v-5h-5.4V2h6.7v8.6h-1.3V9.5h-3.8V16c0,0.3,0,0.5,0.3,0.7c0.3,0.2,1.4,0.2,1.7,0.2
			c0.5,0,1.7,0,2.1-0.2c0.5-0.4,0.6-2.9,0.6-3.4l1.4,0.4C-767.4,14.4-767.5,16.9-768,17.6z"/>
		<path class="st0" d="M-763.7,11.2l-0.8-1.3c1.9-2.7,3-5.9,3.7-9l1.4,0.3c-0.3,1.4-0.8,2.9-1.3,4.2v13.3h-1.4V8.5
			C-762.6,9.4-763.1,10.3-763.7,11.2z M-759.8,4.4h12.1v1.3h-12.1V4.4z M-757.2,17.7v1h-1.4v-6.5h9.5v6.5h-1.4v-1H-757.2z
			 M-758.1,1.7h8.5V3h-8.5V1.7z M-758.1,7h8.5v1.2h-8.5V7z M-758.1,9.6h8.5v1.2h-8.5V9.6z M-757.2,13.5v3h6.7v-3H-757.2z"/>
	</g>
</g>
<g>
	<g>
		<path class="st0" d="M-421.8,16.2l-1.2-1c3.5-4.1,4.2-4.7,4.2-7.1V4.6h1.6V8C-417.2,11.2-418.4,12.2-421.8,16.2z M-413.6,5.3
			l1.4-0.8c0.7,1.1,2.5,4.5,5,10.6l-1.5,0.6C-411.2,9.5-413.2,6-413.6,5.3z M-410.1,4.7h-1.2V1.6h1.2V4.7z M-407.6,4.7h-1.2V1.6h1.2
			V4.7z"/>
		<path class="st0" d="M-402.4,9h14.7v1.5h-14.7V9z"/>
		<path class="st0" d="M-375.3,9.8h-7V8.4h7.1V4.9c-1.2,0.4-2.5,0.6-4.4,0.9l-0.1-1.5c4.6-0.6,7.7-2.2,8.5-2.6l0.7,1.3
			c-1,0.4-1.8,0.9-3.1,1.4v4.1h5.7v1.4h-5.7c-0.1,3.1-0.9,4.9-4,8.3l-1.2-1C-376,14-375.4,12.5-375.3,9.8z"/>
		<path class="st0" d="M-353.9,13.8l-0.5-1.3c2.9-1.1,3.3-1.7,3.4-2.8h-5.2l0.5,8.2h-1.5l-0.5-8.2h-3.5V8.3h3.3l-0.2-3.6h1.5
			l0.2,3.6h6.7v1.2C-349.6,11.9-351.3,12.8-353.9,13.8z"/>
		<path class="st0" d="M-341.6,17.4l-1.3-0.9c2.8-3.8,3.2-5.3,3.2-9.4V4.7h1.6V7C-338.1,11.5-338.5,13.3-341.6,17.4z M-328.6,11.5
			l1.3,0.8c-2.1,3.9-3.5,5-6.7,5h-1.4V2.8h1.6v13.1C-331.4,15.8-330.4,14.9-328.6,11.5z"/>
		<path class="st0" d="M-323,11.4l-0.8-1.2c1.9-2.8,3.1-5.9,3.8-9.2l1.4,0.4c-0.4,1.4-0.8,3-1.4,4.4v12.9h-1.4V8.8
			C-321.8,9.6-322.4,10.5-323,11.4z M-306.8,13.8l-1.1,1.4c-2.1-2.2-3.7-4.6-4.7-7.4v5.7h2.5v1.2h-2.5v4h-1.4v-4h-2.4v-1.2h2.5V7.8
			c-0.9,2.9-2.4,5.5-4.6,7.8l-1.1-1.2c2.4-2.1,4-5,5.1-8h-4.3V5.1h4.8V1h1.4v4.1h5.3v1.3h-4.8C-310.9,9.3-309.2,11.8-306.8,13.8z"/>
		<path class="st0" d="M-303.2,12.3l0.9,0.2c0,1.7-0.2,3.4-0.7,5l-1-0.7C-303.5,15.4-303.3,13.9-303.2,12.3z M-296.9,17.7
			c-0.2,0.8-0.8,1-1.6,1c-0.6,0-1.1,0-1.7-0.1l-0.2-1.4c0.6,0.1,1.1,0.2,1.7,0.2c0.4,0,0.6-0.2,0.8-0.6c0.1-0.3,0.1-0.8,0.1-1.2
			l0-0.4l0-0.1l-0.9,0.4h0c-0.2-1.1-0.4-2.2-0.7-3.3l0.8-0.3c0.4,1,0.7,2.1,0.9,3.2c0.1-1.2,0.1-2.4,0.1-3.6v-0.3h-5.4V1.6h6.8v1.2
			h-2.6v1.7h2.1v1.1h-2.1v1.7h2.1v1.1h-2.1v1.8h2.5C-296.4,11.5-296.4,16.4-296.9,17.7z M-300.8,16.4l-1,0.3h0
			c0-1.4-0.1-2.8-0.2-4.2l0.8-0.1C-300.9,13.7-300.8,15.1-300.8,16.4z M-301.8,4.4h1.8V2.7h-1.8V4.4z M-301.8,7.2h1.8V5.5h-1.8V7.2z
			 M-301.8,10.1h1.8V8.3h-1.8V10.1z M-300.7,12.4l0.8-0.2c0.3,1.2,0.5,2.3,0.7,3.5l-0.9,0.4h0C-300.3,14.9-300.4,13.6-300.7,12.4z
			 M-286.6,17.2l-0.9,1.4c-1.9-1.1-3.3-2.7-4-4.7c-0.6,2.3-2,4-4.2,5.1l-0.8-1.2c2.2-0.9,3.5-2.6,4-4.8h-1.8v0.8h-1.2V8.4h3.3V6.9
			h-1.8V6.1c-0.6,0.6-1.2,1.2-1.9,1.8l-0.8-1.1c2-1.5,3.3-3.6,4.2-5.9h1.5c1,2.2,2.6,4,4.6,5.4l-0.8,1.3c-0.6-0.5-1.3-1.1-1.8-1.7
			v0.9h-1.9v1.5h3.3v5.3h-1.2v-0.8h-1.8C-289.9,14.8-288.4,16.3-286.6,17.2z M-294.3,11.7h2V9.5h-2V11.7z M-291.8,2.3
			c-0.5,1.2-1.1,2.3-1.9,3.4h4.3C-290.3,4.6-291.1,3.5-291.8,2.3z M-288.9,9.5h-2.1v2.3h2.1V9.5z"/>
	</g>
</g>
<g>
	<g>
		<path class="st0" d="M0,15.1h9.5v-9H0V4.6h11.1v11.9H0V15.1z"/>
		<path class="st0" d="M23.5,3.9v1.5h-5.6V3.9H23.5z M18.5,17.3v-1.5c6.2,0,7.4-2.2,10.9-8.7l1.4,0.8C27.3,14.3,25.8,17.3,18.5,17.3
			z"/>
		<path class="st0" d="M38.9,18.1l-1.1-1c3.3-3.6,3.5-5.1,3.5-8.4h-6.7V7.1h14v1.5h-5.7C42.8,12.3,42.6,14.1,38.9,18.1z M36.7,4.2
			V2.7h9.7v1.5H36.7z"/>
		<path class="st0" d="M59.4,3.9v1.5h-5.6V3.9H59.4z M54.4,17.3v-1.5c6.2,0,7.4-2.2,10.9-8.7l1.4,0.8C63.3,14.3,61.7,17.3,54.4,17.3
			z"/>
		<path class="st0" d="M73.4,2.9v5.6h-1.5V2.9H73.4z M81.9,4.7V2.9h1.6v1.8c0,6.5-2.4,9-8.8,13.3l-0.9-1.3
			C80.4,12.3,81.9,10,81.9,4.7z M77.8,8.5h-1.5V2.9h1.5V8.5z"/>
		<path class="st0" d="M99.8,6.1H95c-0.8,1.6-2,2.8-4.6,4.6l-0.9-1.2c4.8-3.4,4.8-5.2,4.8-7.9h1.6c0,1.6-0.1,2.3-0.3,3h5.9V6
			c0,4.2-2.7,7.6-9.9,12.1l-0.9-1.3C97.2,12.6,99.7,9.7,99.8,6.1z"/>
		<path class="st0" d="M110.6,2.2v8.7h-1.5V2.2H110.6z M111.8,16.9l0.9,1.3c4.3-3.3,5.4-4.5,5.4-10.9V2.2h-1.6v5.1
			C116.6,13.1,115.7,13.9,111.8,16.9z"/>
		<path class="st0" d="M137.3,4.6v1.4h-5v9.3h6.4v1.4h-14.5v-1.4h6.5V6.1h-5V4.6H137.3z"/>
		<path class="st0" d="M151,7.6v10.5h-1.6V8.8c-1.5,1.1-3.3,2.2-5.9,4l-0.8-1.3c7-4.5,10.5-6.5,10.5-9.6h1.5
			C154.7,4,153.6,5.6,151,7.6z"/>
		<path class="st0" d="M164.7,18.1l-1.1-1c3.3-3.6,3.5-5.1,3.5-8.4h-6.7V7.1h14v1.5h-5.7C168.6,12.3,168.4,14.1,164.7,18.1z
			 M162.5,4.2V2.7h9.7v1.5H162.5z"/>
		<path class="st0" d="M185.3,8.8c2.5-1.8,3.3-2.6,3.3-4.1h1.4c0,1.9-0.8,2.9-3.3,4.7v8.7h-1.5v-7.5c-1.1,0.8-2.5,1.7-4.9,3.3
			l-0.8-1.2C182.5,10.8,184,9.8,185.3,8.8z"/>
		<path class="st0" d="M209.3,5.2c0,5.9-2.8,8.5-8.4,12.6l-1.1-1.2c5.6-4,7.7-6.3,7.8-11h-10V4h11.6V5.2z M208.4,3.1h-1.2V0h1.2V3.1
			z M210.9,3.1h-1.2V0h1.2V3.1z"/>
	</g>
</g>
</svg>
