<?xml version="1.0" encoding="utf-8"?>
<!-- Generator: Adobe Illustrator 24.0.3, SVG Export Plug-In . SVG Version: 6.00 Build 0)  -->
<svg version="1.1" id="レイヤー_1" xmlns="http://www.w3.org/2000/svg" xmlns:xlink="http://www.w3.org/1999/xlink" x="0px"
	 y="0px" viewBox="0 0 1081.3 37.8" style="enable-background:new 0 0 1081.3 37.8;" xml:space="preserve">
<style type="text/css">
	.st0{fill:#9D005D;}
</style>
<g>
	<g>
		<path class="st0" d="M8.5,4.6H19v2.7H9c-3.5,0-5.8,0.3-5.8,4.5V28c0,4.4,2.2,4.4,5.8,4.4h10v2.8H8.5c-4.8,0-8.5-1.3-8.5-6.7V11.4
			C0,5.9,3.8,4.6,8.5,4.6z"/>
		<path class="st0" d="M37.5,35.2h-5.9c-2.8,0-7.5-1-7.5-7.1V4.6h3.2v23.5c0,4.3,2.9,4.3,4.3,4.3h5.9c1.4,0,4.3,0,4.3-4.3V4.6H45
			v23.5C45,34.2,40.3,35.2,37.5,35.2z"/>
		<path class="st0" d="M64.5,4.6c5,0,7.7,3,7.7,8c0,2.7-1.1,5.6-3.4,6.9c2.8,0.9,3.9,4.1,3.9,7c0,5.5-1.7,8.8-7.6,8.8H52.2V4.6H64.5
			z M68.9,12.6c0-3.3-1.4-5.3-4.8-5.3h-8.7v11h9.3C67.5,18.3,68.9,15.1,68.9,12.6z M69.4,26.4c0-2.7-1.3-5.4-4.3-5.4h-9.7v11.4H65
			C68.9,32.4,69.4,29.8,69.4,26.4z"/>
		<path class="st0" d="M99.2,7.3H82.5v10.8h14.2v2.6H82.5v11.8h16.7v2.7H79.4V4.6h19.8V7.3z"/>
		<path class="st0" d="M138.8,11.9h-9.9c-1.7,3.2-4,5.6-9.3,9.2l-1.9-2.4c9.6-6.8,9.7-10.4,9.7-15.8h3.2c0,3.2-0.2,4.5-0.6,6H142
			v2.7c0,8.5-5.4,15.2-19.7,24.2l-1.8-2.5C133.7,25.1,138.7,19.2,138.8,11.9z M140.2,6.7h-2.4V0.6h2.4V6.7z M145.1,6.8h-2.4V0.6h2.4
			V6.8z"/>
		<path class="st0" d="M157.3,34.6l-2.6-1.8c5.7-7.7,6.4-10.7,6.4-18.9V9.2h3.2v4.6C164.3,22.9,163.4,26.4,157.3,34.6z M183.4,22.7
			l2.6,1.6c-4.2,7.8-6.9,10.1-13.4,10.1h-2.9v-29h3.1v26.1C177.7,31.4,179.7,29.7,183.4,22.7z"/>
		<path class="st0" d="M195.4,17.8h29.5v3h-29.5V17.8z"/>
		<path class="st0" d="M260.7,10.1c0,11.8-5.6,17-16.8,25.3l-2.1-2.4c11.1-8.2,15.4-12.8,15.7-22.2h-20V7.7h23.3V10.1z M264.3,8.4
			c-2.3,0-4.2-1.8-4.2-4.1c0-2.3,2-4.2,4.2-4.2c2.2,0,4.2,2,4.2,4.2C268.5,6.5,266.6,8.4,264.3,8.4z M264.3,1.8
			c-1.3,0-2.4,1.1-2.4,2.5c0,1.4,1.1,2.4,2.4,2.4c1.3,0,2.5-1.1,2.5-2.4C266.8,2.9,265.5,1.8,264.3,1.8z"/>
		<path class="st0" d="M282.2,14.5h-6.1v-2.7h6.1V2.9h3v8.9h2.7c2.5,0,6.3,0.5,7.7,4.9c0.5,1.6,0.7,3.4,0.7,6.8c0,3.3-0.2,5-0.7,6.7
			c-1.5,4.5-5,4.8-9.1,4.8v-2.8c5,0,5.6-1.1,6.2-3c0.4-1.1,0.6-2.4,0.6-5.7c0-3.5-0.2-4.8-0.6-5.8c-0.6-1.8-1.6-3.1-4.8-3.1h-2.8
			c-0.2,8.3-1.5,10.4-6.3,20l-2.7-1.3C281.2,23.6,282.1,22,282.2,14.5z M300,9.1h-2.3v-6h2.3V9.1z M298.6,13l2.1-1.9
			c4.7,3.5,5.2,6,5.2,15.2h-3C302.9,17,302.2,16,298.6,13z M304.8,9.2h-2.3v-6h2.3V9.2z"/>
		<path class="st0" d="M328.4,37.2h-2.6V33c-3.3,0.8-7.3,1.3-10.7,1.8l-0.9,0.1l-0.7-2.7l1.2-0.1c0.8,0,1.6-0.1,2.3-0.2h0V18.6h-3.6
			v-2.3h33.1v2.3h-18.1V37.2z M318.6,2.9h22.6V14h-22.6V2.9z M325.8,18.6h-6.3v2.8h6.3V18.6z M325.8,23.4h-6.3v2.8h6.3V23.4z
			 M325.8,31L325.8,31l-0.1-2.7h-6.3v3.4l2.3-0.2C323.1,31.3,324.5,31.2,325.8,31z M321.4,7.4h17V5.1h-17V7.4z M321.4,11.8h17V9.4
			h-17V11.8z M346.7,34.5l-1.8,2.6c-2.6-1.2-4.9-2.6-7-4.4c-2.2,2.2-4.6,3.9-7.5,5.1l-1.6-2.4c2.7-1,5.3-2.5,7.3-4.5
			c-2-2.2-3.7-5-4.7-7.8h-2.2v-2.3H343l1.4,1.3c-1.2,2.9-2.6,5.6-4.6,8.2h0l-0.2,0.3C341.7,32.4,344.1,33.6,346.7,34.5z M337.8,29.1
			c1.3-1.8,2.4-3.8,3.3-5.9h-7.2C334.9,25.3,336.2,27.4,337.8,29.1z"/>
		<path class="st0" d="M364.8,33.4c2.2,0.6,6.5,0.6,8.8,0.6c4.6,0,9.1-0.2,13.6-0.5c-0.5,0.9-0.8,1.9-1,2.9
			c-3.8,0.2-7.5,0.3-11.3,0.3c-3,0-8.7-0.1-11.6-1.1c-1.6-0.6-3-1.6-4-3c-1.5,1.8-3,3.4-4.8,5l-1.5-2.9c1.7-1.2,3.3-2.4,4.7-3.7V20
			H353v-2.6h7.3v12.8h0C361.4,31.8,362.9,32.8,364.8,33.4z M353.8,4.8l1.9-1.8c2,1.8,3.8,3.8,5.4,6l-2.1,2h0
			C357.4,8.7,355.7,6.6,353.8,4.8z M382.3,31.8c-1.1,0-2.2,0-3.3-0.3l-0.3-2.5c1,0.2,2,0.3,3,0.3c0.6,0,0.7-0.6,0.7-1.2V13.8h-7.1
			v2.7h6.1v2.1h-6.1v2.8h4.2v6.9h-8.3v1.9h-2.4v-8.8h4.1v-2.8h-5.9v-2.1h5.9v-2.7h-6.8v18.1h-2.6V11.7h5.7c-0.4-1.3-1-2.8-1.6-4.1
			h-5.3V5.4h10.3V1.2h2.7v4.1h10.6v2.2h-5.4c-0.5,1.4-1.2,2.8-1.9,4.1h6.1v17.4C385.1,30.9,384.2,31.8,382.3,31.8z M372.1,11.7h4.2
			c0.6-1.3,1.2-2.8,1.6-4.1h-7.4C371.2,8.9,371.7,10.3,372.1,11.7z M371.3,23.5v3h5.9v-3H371.3z"/>
		<path class="st0" d="M402,10.5h-5V7.7h5.9c0.6-2.2,1.1-4.2,1.4-5.2l2.9,0.7C407,4,406.5,5.7,406,7.7h5.3v2.8h-6.2
			c-2,6.7-4.6,13-7.7,18.8l-2.6-1.5C397.6,22.5,400.1,16.7,402,10.5z M417.4,22.1v5c2.4,0.9,4.5,2.1,7.5,3.9l-1.4,2.4
			c-2.8-1.7-4.3-2.5-6.1-3.4c0,4-2.1,5.8-5.8,5.8c-3.7,0-8.3-2.6-6.9-6.7c0.6-1.8,2.5-3,5.3-3.3c1.7-0.2,2.6-0.1,4.5,0.3V22
			c0-2.7,0.6-4.3,1.8-5.6c-4.2,0-5.1,0.4-7.5,1.9l-1.5-2.2c2.7-1.6,4.4-2.2,7.1-2.1l9,0.2v2.3h-2.7
			C418.8,16.5,417.3,18.2,417.4,22.1z M411.4,28.4c-0.7,0-1.7,0.1-2.5,0.4c-1,0.4-1.6,1.1-1.6,1.8c0,2.1,3.6,2.5,4.4,2.5
			c2.4,0,3-1.3,3-3.4v-0.8C413.5,28.6,412.4,28.4,411.4,28.4z"/>
		<path class="st0" d="M437.3,7.3l2.5-1.4c2.6,3.4,4.4,6.8,6.4,11l-2.9,1.3C441.1,13.5,439.4,10.3,437.3,7.3z M443.4,35.6l-2-2.5
			C453.3,24.4,458,19.2,458,8.4V5.5h3.3v2.9C461.3,20.7,455.9,26.6,443.4,35.6z"/>
		<path class="st0" d="M483.7,4.3v17.4h-3V4.3H483.7z M486.2,33.6l1.9,2.6c8.7-6.5,10.7-9,10.7-21.7V4.3h-3.2v10.1
			C495.6,26.1,494,27.6,486.2,33.6z"/>
		<path class="st0" d="M521.5,17.2v-2.8H536v14.8h6V32h-25v-2.8h16v-12H521.5z"/>
		<path class="st0" d="M554.8,17.8h29.5v3h-29.5V17.8z"/>
		<path class="st0" d="M609.3,6.4v3.1h-10.3V6.4H609.3z M599.1,17v-3h10.3v3H599.1z M622,18.7c-4.2,8.5-7.7,15.9-19.1,15.9H600v-2.9
			h2.9c9.3,0,12.1-6.1,16.2-14.3c1.1-2.2,2-4.1,2-4.1l2.8,1.3C623.9,14.6,622.5,17.8,622,18.7z"/>
		<path class="st0" d="M643.2,23.4v-2.8h13.1v-6.1H642v-2.8h17.2v21.7h-17.5v-2.8h14.6v-7.2H643.2z"/>
		<path class="st0" d="M688.8,7.6v3h-11.1v-3H688.8z M678.8,34.4v-3c12.4,0,14.7-4.4,21.8-17.4l2.8,1.6
			C696.5,28.4,693.5,34.4,678.8,34.4z"/>
		<path class="st0" d="M728.2,15.4c2.8-0.1,4.5,1.2,5.4,3.7c2.1-0.9,4.1-1.7,7-2.8l1.2,2.6c-2.9,1.2-5.4,2.2-7.5,3.1V28h-2.9v-4.8
			c-3.3,1.8-8,4-6.8,7.4c1,2.6,5.4,2.5,6.9,2.5c2.5,0,5.2-0.4,7.6-0.6l0.1,2.8c-2.6,0.3-5.2,0.6-7.9,0.6c-5.3,0-8.3-1.3-9.5-4
			c-2.4-5.8,4.7-9.2,9.2-11.6c-0.6-2-1.8-2.2-2.8-2.2h-5l1.2-8.8h-6.9V6.6h7.3l0.6-4.8h3l-0.7,4.8h10.1v2.7h-10.5l-0.8,6.2H728.2z"
			/>
		<path class="st0" d="M754,37.2V3.1h13.6v12h-10.8v22.2H754z M756.8,5.4V8h8.3V5.4H756.8z M756.8,10.1v2.8h8.3v-2.8H756.8z
			 M774.3,27v8.4h-2.6V27H767c-0.3,4-2.1,7.4-5.7,9.4l-1.8-2c3-1.4,4.6-4,4.9-7.3h-5.8v-2.3h5.8v-4.4h-4.7v-2.2h18.9v2.2h-4.6v4.4
			h5.7V27H774.3z M771.5,24.7v-4.4H767v4.4H771.5z M781.2,37c-1.5,0-3,0-4.4-0.3l-0.4-3c1.4,0.3,2.8,0.4,4.2,0.4
			c0.8,0,1.2-0.4,1.2-1.2V15.1h-11.1v-12h13.9V34C784.4,36.4,783.6,37,781.2,37z M773.1,5.4V8h8.5V5.4H773.1z M773.1,10.1v2.8h8.5
			v-2.8H773.1z"/>
		<path class="st0" d="M815.6,9.6c0.7,0.7,1.6,1.6,2.4,2.1c1.6-1.4,3-2.9,4.3-4.7l2.2,1.7c-1.4,1.6-3,3.1-4.6,4.4
			c2,1.3,4.2,2.5,6.3,3.5l-1.8,2.5c-2.3-1.2-4.4-2.6-6.3-4v2h-3.6v5.3h9.7v2.5h-9.7v7.3c0,0.6,0,1.2,0.6,1.4
			c0.5,0.3,2.2,0.2,2.8,0.2c0.8,0,3.4,0,3.9-0.6c0.5-0.5,0.6-2.9,0.7-3.6c0-0.1,0-0.2,0-0.3v-0.5l2.8,1c0,1.3-0.2,4.4-1.1,5.5
			c-1,1.3-5,1.2-6.5,1.2c-1.1,0-3.4,0-4.4-0.5c-1.2-0.6-1.5-1.7-1.5-2.9v-8.2h-5.3c-0.8,6.8-5.6,10.6-11.9,12.5l-1.4-2.6
			c5.2-1.3,9.8-4.3,10.6-9.9h-9.5v-2.5h9.7v-5.3h-3v-1.4c-2.2,1.6-4.5,3-7,4.3l-1.8-2.4c2.8-1.2,5.6-2.8,8.1-4.6
			c-1.4-1.6-3-3-4.7-4.3l2-1.8c1.6,1.4,3.2,2.9,4.7,4.4c1.6-1.5,3.3-3.7,4.5-5.6h-8.7V3.2h12.9c1,1.7,2,3.3,3.3,4.7
			c1.5-1.4,2.9-2.9,4.2-4.6l2.2,1.7C819,6.6,817.4,8.2,815.6,9.6z M809.4,6.1c-1.9,3.3-4.4,6.2-7.3,8.6h15.5
			C814.4,12.3,811.6,9.4,809.4,6.1z M811.7,17.1h-5.2v5.3h5.2V17.1z"/>
		<path class="st0" d="M846.6,16.6h5.1v5.4h-5.1V16.6z"/>
		<path class="st0" d="M884,9.4V12h-4.2v7.6l4-1.3l0.2,2.2c-1.4,0.6-2.8,1.2-4.3,1.7h0v12.3c0,2.4-0.9,2.8-3.2,2.8
			c-1.2,0-2.3-0.1-3.4-0.3l-0.5-2.9c1.1,0.2,2.2,0.4,3.2,0.4c0.7,0,1.2-0.3,1.2-1.1V23c-0.2,0-0.3,0.1-0.2,0l-0.2,0.1
			c0,0-0.1,0-0.1,0l-4.1,1.2l-0.8-2.7c1.8-0.4,3.6-0.8,5.4-1.3h0V12h-4.8V9.4h4.8v-8h2.6v8H884z M901.4,33.6c1.6,0,3.3,0,5-0.2
			c-0.5,0.9-0.8,1.9-1,3c-1.2,0-2.4,0.1-3.7,0.1c-5.9,0-10-1.2-13.5-6c-0.9,2.6-2.3,4.9-4.1,7l-1.8-2.1c3-3.5,4.4-8.1,5.1-12.6
			l2.7,0.6c-0.3,1.5-0.6,2.9-1,4.4c1.2,1.7,2.6,3.2,4.4,4.2V21.5h-8.7v-2.4h20.8v2.4h-9.4v3.9h8.2v2.4h-8.2v5.3h0
			C897.8,33.4,899.6,33.6,901.4,33.6z M902.9,2.6v13.7h-16.3V2.6H902.9z M889.1,4.9v3.4h11.1V4.9H889.1z M889.1,10.4V14h11.1v-3.6
			H889.1z"/>
		<path class="st0" d="M913.4,22.9l-1.5-2.5c3.9-5.6,6.3-12,7.7-18.7l2.8,0.6c-0.7,3-1.7,6.3-2.8,9.2v25.7h-2.8V17.6
			C915.8,19.3,914.7,21.1,913.4,22.9z M921,22h6.4v-9.2h-4.9v-2.5h4.9v-8h2.7v8h6.4v-8h2.8v8h5.6v2.5h-5.6V22h6.7v2.5H921V22z
			 M928.7,25.8l2.5,1.4c-2,3.8-4.5,7.2-7.9,9.9l-2-2.4C924.5,32.6,926.9,29.4,928.7,25.8z M936.5,22v-9.2h-6.4V22H936.5z
			 M935.5,27.2l2.1-1.6c3,2.7,5.6,5.6,8.1,8.8l-2.3,2.4h-0.1C941,33.2,938.4,30,935.5,27.2z"/>
		<path class="st0" d="M968,35.5c-4.5,0-8.1-2.8-8.1-8.4v-23h3.2v23c0,3.3,1.5,5.6,4.9,5.6c3.2,0,7.6-1.8,12.5-8.3l2.2,2
			C977.9,32.6,972.8,35.5,968,35.5z"/>
		<path class="st0" d="M1011.5,28.8c-0.1,4.4-1.9,6.5-6.1,6.5c-4.4,0-8.6-2.6-7.1-7c0.6-1.8,2.6-3.1,5.5-3.4c1.4-0.2,3-0.2,4.8,0.2
			v-7h-9.9v-2.7h9.9v-6h-10.4V6.6h10.4V1.8h2.9v4.8h9.3v2.8h-9.3v6h8.7v2.7h-8.7v7.8c4,1.4,6.9,3.4,9.9,5.5l-1.8,2.3
			C1015.8,30.9,1013.8,29.8,1011.5,28.8z M1004.1,28c-1.2,0.2-2.8,0.8-3,1.9c-0.4,1.7,2.2,2.7,4.2,2.7c2.9,0,3.2-1.4,3.2-4.3
			C1006.9,27.8,1005.1,27.8,1004.1,28z"/>
		<path class="st0" d="M1054,10.6v12.1c0.2,7.2,0,8.2-6.1,14.4l-2.2-1.9c4.4-4.3,5.2-5.3,5.5-8.2c-0.9,0.8-1.7,1.1-3.2,1
			c-3.6-0.2-5.9-3.2-5.5-7.1c0.3-3.7,2.8-6.2,6.1-6.2c1.3,0,1.8,0.2,2.5,0.7v-4.8h-17.1V7.9h17.1V2.8h3v5.1h9.3v2.7H1054z
			 M1045.4,21.1c-0.2,1.7,0.5,4,2.8,4.1c2.3,0.1,3.1-1.8,3.2-3.6c0.2-2.2-0.8-4.1-3-4.1C1046.4,17.4,1045.5,19.4,1045.4,21.1z"/>
		<path class="st0" d="M1078.5,27.3c1.9,1,2.8,2.6,2.8,4.7c0,0.8-0.2,1.6-0.6,2.4c-1,1.9-2.6,2.9-4.7,2.9c-0.9,0-1.8-0.2-2.5-0.6
			c-1.9-1-2.8-2.6-2.8-4.7c0-1.4,0.6-2.7,1.6-3.8c1-1,2.2-1.5,3.7-1.5C1076.9,26.7,1077.7,26.9,1078.5,27.3z M1073.8,29.6
			c-0.7,0.6-1,1.5-1,2.4c0,0.5,0.1,0.9,0.3,1.4c0.6,1.2,1.6,1.9,3,1.9c0.6,0,1.2-0.2,1.7-0.5c1-0.6,1.6-1.5,1.6-2.8
			c0-1.4-0.6-2.4-1.8-3c-0.5-0.2-1-0.3-1.5-0.3C1075.2,28.7,1074.4,29,1073.8,29.6z"/>
	</g>
</g>
</svg>
