<?xml version="1.0" encoding="utf-8"?>
<!-- Generator: Adobe Illustrator 24.0.3, SVG Export Plug-In . SVG Version: 6.00 Build 0)  -->
<svg version="1.1" id="レイヤー_1" xmlns="http://www.w3.org/2000/svg" xmlns:xlink="http://www.w3.org/1999/xlink" x="0px"
	 y="0px" viewBox="0 0 136.6 17.9" style="enable-background:new 0 0 136.6 17.9;" xml:space="preserve">
<style type="text/css">
	.st0{fill:#FFFFFF;}
</style>
<g>
	<g>
		<path class="st0" d="M-413.9,17.3l-1-1.2c5.1-3.8,6.2-5,6.2-8.4h-9.8V6.2h11.4v1.4C-407.1,11.8-408.7,13.4-413.9,17.3z
			 M-408.5,1.7v1.5h-8.7V1.7H-408.5z"/>
		<path class="st0" d="M-391.4,6.7v10.5h-1.6V7.9c-1.5,1.1-3.3,2.2-5.9,4l-0.8-1.3c7-4.5,10.5-6.5,10.5-9.6h1.5
			C-387.6,3.1-388.7,4.7-391.4,6.7z"/>
		<path class="st0" d="M-367,4.2c0,5.9-2.8,8.5-8.4,12.6l-1.1-1.2c5.6-4,7.7-6.3,7.8-11h-10V3h11.6V4.2z M-367.9,2.1h-1.2v-3.1h1.2
			V2.1z M-365.4,2.1h-1.2v-3.1h1.2V2.1z"/>
		<path class="st0" d="M-352.4,2.3h-2.8v2.4h2.4v13h-1.3v-0.8h-5.3v0.9h-1.3V4.7h2.2V2.3h-2.7V1.1h8.8V2.3z M-358.6,11.7l-0.8-0.9
			v1.5h5.3v-1.8h-1.1c-0.7,0-1.1-0.4-1.1-1.1V5.8h-1C-357.4,7.8-357.7,9.9-358.6,11.7z M-358.4,5.8h-1v4.9
			C-358.7,9.4-358.5,7.4-358.4,5.8z M-359.4,15.7h5.3v-2.3h-5.3V15.7z M-356.3,2.3h-1v2.4h1V2.3z M-354.9,9.4h0.8V5.8h-1.1V9
			C-355.2,9.2-355.1,9.4-354.9,9.4z M-345,16.7c-0.3,0.4-0.8,0.5-1.3,0.6c-0.7,0.1-1.5,0.1-2.2,0.1c-0.6,0-2,0-2.6-0.3
			c-0.5-0.3-0.6-0.9-0.6-1.5V7.3h5.1v-5h-5.4V1.1h6.7v8.6h-1.3V8.6h-3.8v6.5c0,0.3,0,0.5,0.3,0.7c0.3,0.2,1.4,0.2,1.7,0.2
			c0.5,0,1.7,0,2.1-0.2c0.5-0.4,0.6-2.9,0.6-3.4l1.4,0.4C-344.3,13.5-344.4,16-345,16.7z"/>
		<path class="st0" d="M-340.7,10.3l-0.8-1.3c1.9-2.7,3-5.9,3.7-9l1.4,0.3c-0.3,1.4-0.8,2.9-1.3,4.2v13.3h-1.4V7.6
			C-339.5,8.5-340,9.4-340.7,10.3z M-336.8,3.4h12.1v1.3h-12.1V3.4z M-334.2,16.7v1h-1.4v-6.5h9.5v6.5h-1.4v-1H-334.2z M-335.1,0.8
			h8.5V2h-8.5V0.8z M-335.1,6.1h8.5v1.2h-8.5V6.1z M-335.1,8.7h8.5v1.2h-8.5V8.7z M-334.2,12.5v3h6.7v-3H-334.2z"/>
	</g>
</g>
<g>
	<g>
		<path class="st0" d="M1.2,15.3l-1.2-1c3.5-4.1,4.2-4.7,4.2-7.1V3.7h1.6v3.4C5.8,10.3,4.7,11.2,1.2,15.3z M9.4,4.3l1.4-0.8
			c0.7,1.1,2.5,4.5,5,10.6l-1.5,0.6C11.8,8.6,9.8,5,9.4,4.3z M13,3.7h-1.2V0.7H13V3.7z M15.5,3.7h-1.2V0.7h1.2V3.7z"/>
		<path class="st0" d="M20.6,8.1h14.7v1.5H20.6V8.1z"/>
		<path class="st0" d="M47.8,8.9h-7V7.4h7.1V3.9c-1.2,0.4-2.5,0.6-4.4,0.9l-0.1-1.5c4.6-0.6,7.7-2.2,8.5-2.6L52.4,2
			c-1,0.4-1.8,0.9-3.1,1.4v4.1H55v1.4h-5.7c-0.1,3.1-0.9,4.9-4,8.3l-1.2-1C47,13,47.7,11.6,47.8,8.9z"/>
		<path class="st0" d="M69.2,12.8l-0.5-1.3c2.9-1.1,3.3-1.7,3.4-2.8h-5.2l0.5,8.2h-1.5l-0.5-8.2h-3.5V7.4h3.3l-0.2-3.6h1.5l0.2,3.6
			h6.7v1.2C73.4,11,71.8,11.8,69.2,12.8z"/>
		<path class="st0" d="M81.5,16.4l-1.3-0.9c2.8-3.8,3.2-5.3,3.2-9.4V3.8H85v2.3C85,10.6,84.5,12.4,81.5,16.4z M94.5,10.5l1.3,0.8
			c-2.1,3.9-3.5,5-6.7,5h-1.4V1.8h1.6v13.1C91.6,14.9,92.7,14,94.5,10.5z"/>
		<path class="st0" d="M100.1,10.4l-0.8-1.2c1.9-2.8,3.1-5.9,3.8-9.2l1.4,0.4c-0.4,1.4-0.8,3-1.4,4.4v12.9h-1.4V7.8
			C101.2,8.7,100.7,9.5,100.1,10.4z M116.2,12.8l-1.1,1.4c-2.1-2.2-3.7-4.6-4.7-7.4v5.7h2.5v1.2h-2.5v4H109v-4h-2.4v-1.2h2.5V6.9
			c-0.9,2.9-2.4,5.5-4.6,7.8l-1.1-1.2c2.4-2.1,4-5,5.1-8h-4.3V4.2h4.8V0.1h1.4v4.1h5.3v1.3H111C112.1,8.4,113.8,10.8,116.2,12.8z"/>
		<path class="st0" d="M119.8,11.4l0.9,0.2c0,1.7-0.2,3.4-0.7,5l-1-0.7C119.5,14.5,119.7,12.9,119.8,11.4z M126.2,16.8
			c-0.2,0.8-0.8,1-1.6,1c-0.6,0-1.1,0-1.7-0.1l-0.2-1.4c0.6,0.1,1.1,0.2,1.7,0.2c0.4,0,0.6-0.2,0.8-0.6c0.1-0.3,0.1-0.8,0.1-1.2
			l0-0.4l0-0.1l-0.9,0.4h0c-0.2-1.1-0.4-2.2-0.7-3.3l0.8-0.3c0.4,1,0.7,2.1,0.9,3.2c0.1-1.2,0.1-2.4,0.1-3.6v-0.3H120V0.6h6.8v1.2
			h-2.6v1.7h2.1v1.1h-2.1v1.7h2.1v1.1h-2.1v1.8h2.5C126.7,10.6,126.6,15.4,126.2,16.8z M122.3,15.4l-1,0.3h0c0-1.4-0.1-2.8-0.2-4.2
			l0.8-0.1C122.1,12.8,122.2,14.1,122.3,15.4z M121.2,3.5h1.8V1.8h-1.8V3.5z M121.2,6.2h1.8V4.6h-1.8V6.2z M121.2,9.1h1.8V7.3h-1.8
			V9.1z M122.4,11.5l0.8-0.2c0.3,1.2,0.5,2.3,0.7,3.5l-0.9,0.4h0C122.8,13.9,122.7,12.7,122.4,11.5z M136.5,16.2l-0.9,1.4
			c-1.9-1.1-3.3-2.7-4-4.7c-0.6,2.3-2,4-4.2,5.1l-0.8-1.2c2.2-0.9,3.5-2.6,4-4.8h-1.8v0.8h-1.2V7.4h3.3V5.9H129V5.2
			c-0.6,0.6-1.2,1.2-1.9,1.8l-0.8-1.1c2-1.5,3.3-3.6,4.2-5.9h1.5c1,2.2,2.6,4,4.6,5.4l-0.8,1.3c-0.6-0.5-1.3-1.1-1.8-1.7v0.9H132
			v1.5h3.3v5.3h-1.2v-0.8h-1.8C133.2,13.8,134.6,15.3,136.5,16.2z M128.8,10.8h2V8.5h-2V10.8z M131.3,1.4c-0.5,1.2-1.1,2.3-1.9,3.4
			h4.3C132.8,3.7,131.9,2.6,131.3,1.4z M134.1,8.5H132v2.3h2.1V8.5z"/>
	</g>
</g>
<g>
	<g>
		<path class="st0" d="M423,14.2h9.5v-9H423V3.7h11.1v11.9H423V14.2z"/>
		<path class="st0" d="M446.5,3v1.5H441V3H446.5z M441.5,16.4v-1.5c6.2,0,7.4-2.2,10.9-8.7l1.4,0.8
			C450.4,13.4,448.8,16.4,441.5,16.4z"/>
		<path class="st0" d="M462,17.1l-1.1-1c3.3-3.6,3.5-5.1,3.5-8.4h-6.7V6.2h14v1.5h-5.7C465.9,11.3,465.6,13.1,462,17.1z M459.8,3.2
			V1.7h9.7v1.5H459.8z"/>
		<path class="st0" d="M482.5,3v1.5h-5.6V3H482.5z M477.4,16.4v-1.5c6.2,0,7.4-2.2,10.9-8.7l1.4,0.8
			C486.3,13.4,484.8,16.4,477.4,16.4z"/>
		<path class="st0" d="M496.5,2v5.6h-1.5V2H496.5z M504.9,3.8V1.9h1.6v1.8c0,6.5-2.4,9-8.8,13.3l-0.9-1.3
			C503.5,11.3,504.9,9,504.9,3.8z M500.9,7.5h-1.5V2h1.5V7.5z"/>
		<path class="st0" d="M522.9,5.1H518c-0.8,1.6-2,2.8-4.6,4.6l-0.9-1.2c4.8-3.4,4.8-5.2,4.8-7.9h1.6c0,1.6-0.1,2.3-0.3,3h5.9V5
			c0,4.2-2.7,7.6-9.9,12.1l-0.9-1.3C520.3,11.7,522.8,8.7,522.9,5.1z"/>
		<path class="st0" d="M533.7,1.3V10h-1.5V1.3H533.7z M534.9,15.9l0.9,1.3c4.3-3.3,5.4-4.5,5.4-10.9V1.3h-1.6v5.1
			C539.6,12.2,538.8,12.9,534.9,15.9z"/>
		<path class="st0" d="M560.4,3.7v1.4h-5v9.3h6.4v1.4h-14.5v-1.4h6.5V5.1h-5V3.7H560.4z"/>
		<path class="st0" d="M574,6.7v10.5h-1.6V7.9c-1.5,1.1-3.3,2.2-5.9,4l-0.8-1.3c7-4.5,10.5-6.5,10.5-9.6h1.5
			C577.8,3.1,576.7,4.7,574,6.7z"/>
		<path class="st0" d="M587.8,17.1l-1.1-1c3.3-3.6,3.5-5.1,3.5-8.4h-6.7V6.2h14v1.5h-5.7C591.7,11.3,591.4,13.1,587.8,17.1z
			 M585.6,3.2V1.7h9.7v1.5H585.6z"/>
		<path class="st0" d="M608.3,7.9c2.5-1.8,3.3-2.6,3.3-4.1h1.4c0,1.9-0.8,2.9-3.3,4.7v8.7h-1.5V9.7c-1.1,0.8-2.5,1.7-4.9,3.3
			l-0.8-1.2C605.5,9.9,607,8.8,608.3,7.9z"/>
		<path class="st0" d="M632.3,4.2c0,5.9-2.8,8.5-8.4,12.6l-1.1-1.2c5.6-4,7.7-6.3,7.8-11h-10V3h11.6V4.2z M631.5,2.1h-1.2v-3.1h1.2
			V2.1z M633.9,2.1h-1.2v-3.1h1.2V2.1z"/>
	</g>
</g>
</svg>
