<?xml version="1.0" encoding="utf-8"?>
<!-- Generator: Adobe Illustrator 24.0.3, SVG Export Plug-In . SVG Version: 6.00 Build 0)  -->
<svg version="1.1" id="レイヤー_1" xmlns="http://www.w3.org/2000/svg" xmlns:xlink="http://www.w3.org/1999/xlink" x="0px"
	 y="0px" viewBox="0 0 465.9 36.7" style="enable-background:new 0 0 465.9 36.7;" xml:space="preserve">
<style type="text/css">
	.st0{fill:#FFFFFF;}
</style>
<g>
	<path class="st0" d="M16.6,13.9V35h-3.1V16.4c-3,2.2-6.5,4.5-11.8,8L0,21.8c13.9-9,21-13.1,21-19.2H24C24,6.7,21.9,10,16.6,13.9z"
		/>
	<path class="st0" d="M40.8,24.7l-2.6-1.9L49.5,7.6l20,19l-2.4,2.6L49.8,12L40.8,24.7z M61,11.9h-2.4V5.7H61V11.9z M66,11.9h-2.4
		V5.7H66V11.9z"/>
	<path class="st0" d="M93.1,6.5v3H82v-3H93.1z M83,33.3v-3c12.4,0,14.7-4.4,21.8-17.4l2.8,1.6C100.8,27.3,97.7,33.3,83,33.3z"/>
	<path class="st0" d="M145,22.2l-1.8,2.6c-4.8-3.5-8.9-5.8-13.2-8.1v17.9H127V1.8h3.1v11.8C135.2,16,139.9,18.8,145,22.2z"/>
	<path class="st0" d="M157.5,21.1l-1.4-2.6c3.3-5.4,5.3-12.2,6.6-18.4l2.7,0.7c-0.5,2.1-1.1,4.2-1.7,6.2l-0.6,1.9
		c0,0-0.1,0.2-0.1,0.2c-0.1,0.1-0.1,0.2-0.1,0.4v26.6h-2.6v-20C159.5,17.8,158.5,19.5,157.5,21.1z M190.4,3.2v2.6h-8v6.4h6.7v23.6
		h-2.6v-2.4h-17.2v2.4h-2.6V12.1h6.5V5.7h-7.7V3.2H190.4z M173.2,14.5h-4v16.4h4V14.5z M175.7,12.1h4V5.7h-4V12.1z M175.7,14.5v16.4
		h4V14.5H175.7z M182.2,14.5v16.4h4.2V14.5H182.2z"/>
	<path class="st0" d="M197.7,21.7l-1.5-2.5c3.8-5.8,6-12.4,7.3-19.2l2.7,0.7c-0.7,3.3-1.6,6.6-2.7,9.7v25.7h-2.7V16.5
		C199.9,18.3,198.8,20,197.7,21.7z M209.2,36.1h-2.6V13.2h2.6v18.6H230v2.5h-20.8V36.1z M212.3,10.4h4.3c0.2-1,0.3-2,0.4-3h-9.9V4.9
		h10.2l0.5-4.9l2.9,0.3l-0.3,2l-0.1,0.7c-0.1,0.6-0.2,1.2-0.2,1.8h9v2.4h-9.3c-0.2,1-0.4,2-0.6,3h7.5V29h-14.4V10.4z M224.1,12.6
		h-9.3v3.2h9.3V12.6z M214.8,18v3.2h9.3V18H214.8z M214.8,23.4v3.4h9.3v-3.4H214.8z"/>
	<path class="st0" d="M252.2,14.3c2.8-0.1,4.5,1.2,5.4,3.7c2.1-0.9,4.1-1.7,7-2.8l1.2,2.6c-2.9,1.2-5.4,2.2-7.5,3.1v5.9h-2.9V22
		c-3.3,1.8-8,4-6.8,7.4c1,2.6,5.4,2.5,6.9,2.5c2.5,0,5.2-0.4,7.6-0.6l0.1,2.8c-2.6,0.3-5.2,0.6-7.9,0.6c-5.3,0-8.3-1.3-9.5-4
		c-2.4-5.8,4.7-9.2,9.2-11.6c-0.6-2-1.8-2.2-2.8-2.2h-5l1.2-8.8h-6.9V5.4h7.3l0.6-4.8h3l-0.7,4.8h10.1v2.7h-10.5l-0.8,6.2H252.2z"/>
	<path class="st0" d="M291.7,36.1h-2.6v-4.2c-3.3,0.8-7.3,1.3-10.7,1.8l-0.9,0.1l-0.7-2.7L278,31c0.8,0,1.6-0.1,2.3-0.2h0V17.5h-3.6
		v-2.3h33.1v2.3h-18.1V36.1z M282,1.8h22.6v11.1H282V1.8z M289.1,17.5h-6.3v2.8h6.3V17.5z M289.1,22.3h-6.3v2.8h6.3V22.3z
		 M289.2,29.9L289.2,29.9l-0.1-2.7h-6.3v3.4l2.3-0.2C286.4,30.2,287.9,30.1,289.2,29.9z M284.8,6.2h17V4h-17V6.2z M284.8,10.7h17
		V8.3h-17V10.7z M310,33.4l-1.8,2.6c-2.6-1.2-4.9-2.6-7-4.4c-2.2,2.2-4.6,3.9-7.5,5.1l-1.6-2.4c2.7-1,5.3-2.5,7.3-4.5
		c-2-2.2-3.7-5-4.7-7.8h-2.2v-2.3h13.8l1.4,1.3c-1.2,2.9-2.6,5.6-4.6,8.2h0l-0.2,0.3C305.1,31.3,307.5,32.5,310,33.4z M301.1,28
		c1.3-1.8,2.4-3.8,3.3-5.9h-7.2C298.2,24.2,299.6,26.2,301.1,28z"/>
	<path class="st0" d="M348.8,31.6l-2,3c-6.6-4.3-10.9-10.2-13.2-17.5c-1.4,8.2-5.8,14.4-13.2,18.5l-2.1-2.8
		c7.9-3.3,12.1-11,13.2-19.3h-13.3v-2.8h13.5V1.1h3v9.5h13.7v2.8h-13.2C337.3,21.1,341.7,27.7,348.8,31.6z"/>
	<path class="st0" d="M369.3,24.1c0,2.4-1,4.2-3.6,4.2c-1.1,0-2.2-0.1-3.2-0.3l-0.4-2.7c1.1,0.2,2.1,0.4,3.1,0.4
		c1.2,0,1.5-1.1,1.5-2.2c0-3.6-1.6-6.7-4-9.3c1.3-3,2.4-6.3,3.2-9.5h-5.1v31.4H358v-34h9.7l1.2,1.4c-1,3.5-2.1,7-3.6,10.4h0
		C367.7,16.9,369.3,20.2,369.3,24.1z M381.8,24.9c2-1.6,3.8-3.4,5.5-5.3l2.2,2.1c-2,1.9-4.2,3.8-6.4,5.3c1.8,2.5,4.4,4.6,7.1,6.2
		l-2,2.7c-5.7-4.1-9.5-10.3-10.8-17.1h-3.4v12.9c2.1-0.6,4.2-1.3,6.2-2l0.4,2.3c-4,1.6-7.9,3-12.1,4.2l-1-2.8l0.9-0.2
		c1-0.2,2-0.5,3-0.7h0V2.1h15.7v16.6h-7C380.2,20.9,380.8,23,381.8,24.9z M384.2,4.5h-10.3v4.6h10.3V4.5z M384.2,11.5h-10.3v4.8
		h10.3V11.5z"/>
	<path class="st0" d="M405.8,32l-2.4,1.8c-2.6-3.5-3-4.6-3-9.6V4.1h2.9v20.1C403.2,28.9,403.6,29.2,405.8,32z M418.1,29.3h8.7v2.9
		h-8.9c-6.1,0-7.9-3.8-7.3-10.1h3C413.2,27.2,414,29.3,418.1,29.3z M411.8,7.8h14.1v3h-14.1V7.8z"/>
	<path class="st0" d="M440.1,16.5h25.9v3.2h-25.9V16.5z"/>
</g>
</svg>
