<?xml version="1.0" encoding="utf-8"?>
<!-- Generator: Adobe Illustrator 24.0.3, SVG Export Plug-In . SVG Version: 6.00 Build 0)  -->
<svg version="1.1" id="レイヤー_1" xmlns="http://www.w3.org/2000/svg" xmlns:xlink="http://www.w3.org/1999/xlink" x="0px"
	 y="0px" viewBox="0 0 631.2 60.7" style="enable-background:new 0 0 631.2 60.7;" xml:space="preserve">
<style type="text/css">
	.st0{fill:#FFFFFF;}
</style>
<g>
	<path class="st0" d="M27.9,20.9c-0.1,16.4-8.2,23.7-24.9,34l-3-4.5c16-9.7,22.2-15.9,22.2-29.5H2.6v-5.2h30.9V0h5.6v15.7h12.2v5.2
		H39.1v38.8h-5.6V20.9H27.9z"/>
	<path class="st0" d="M99,8.5V14H78.7V8.5H99z M80.7,57.4V52c22.6,0,26.9-8,39.7-31.7l5.2,2.8C113,46.5,107.4,57.4,80.7,57.4z"/>
	<path class="st0" d="M168.8,60.7l-3.5-4.5c18.5-13.7,22.5-18.3,22.7-30.7h-35.9v-5.2h41.6v5.1C193.7,40.8,187.7,46.6,168.8,60.7z
		 M188.6,3.9v5.5h-31.7V3.9H188.6z"/>
	<path class="st0" d="M251,22v38.5h-5.7v-34c-5.4,3.9-11.9,8.2-21.6,14.6l-3.1-4.7C246.1,19.9,259,12.6,259,1.3h5.6
		C264.6,8.9,260.7,14.8,251,22z"/>
	<path class="st0" d="M317.6,8.5V14h-20.3V8.5H317.6z M299.3,57.4V52c22.6,0,26.9-8,39.7-31.7l5.2,2.8
		C331.7,46.5,326.1,57.4,299.3,57.4z"/>
	<path class="st0" d="M396.8,22v38.5h-5.7v-34c-5.4,3.9-11.9,8.2-21.6,14.6l-3.1-4.7c25.4-16.5,38.3-23.9,38.3-35.1h5.6
		C410.4,8.9,406.5,14.8,396.8,22z"/>
	<path class="st0" d="M441,41.8l-4.7-3.4l20.6-27.7l36.6,34.7l-4.4,4.7l-31.6-31.4L441,41.8z M477.8,18.3h-4.3V7h4.3V18.3z
		 M486.9,18.4h-4.3V7.1h4.3V18.4z"/>
	<path class="st0" d="M536.3,8.5V14H516V8.5H536.3z M518,57.4V52c22.6,0,26.9-8,39.7-31.7l5.2,2.8C550.4,46.5,544.8,57.4,518,57.4z"
		/>
	<path class="st0" d="M631.2,37.1l-3.2,4.7c-8.8-6.4-16.3-10.5-24.1-14.8v32.7h-5.6V0h5.6v21.5C613.2,25.9,621.7,30.9,631.2,37.1z"
		/>
</g>
</svg>
