<?xml version="1.0" encoding="utf-8"?>
<!-- Generator: Adobe Illustrator 24.0.3, SVG Export Plug-In . SVG Version: 6.00 Build 0)  -->
<svg version="1.1" id="レイヤー_1" xmlns="http://www.w3.org/2000/svg" xmlns:xlink="http://www.w3.org/1999/xlink" x="0px"
	 y="0px" viewBox="0 0 415.7 25.4" style="enable-background:new 0 0 415.7 25.4;" xml:space="preserve">
<style type="text/css">
	.st0{fill:#FFFFFF;}
	.st1{fill:#DD1E82;}
</style>
<g>
	<g>
		<path class="st0" d="M6,22l-1.3-1.2c5.3-5.2,6.2-6.7,6.2-13.2H1.8v5.3H0V6h12.7v1.9C12.7,14.8,11.4,16.7,6,22z"/>
		<path class="st0" d="M28,6.6v1.7h-6.1V6.6H28z M22.5,21.3v-1.6c6.8,0,8.1-2.4,12-9.5L36,11C32.2,18,30.6,21.3,22.5,21.3z"/>
		<path class="st0" d="M49.1,22.3L48,20.9c5.6-4.1,6.8-5.5,6.8-9.3H44v-1.6h12.5v1.5C56.6,16.3,54.7,18.1,49.1,22.3z M55,5.2v1.7
			h-9.6V5.2H55z"/>
		<path class="st0" d="M71.9,6.6v1.7h-6.1V6.6H71.9z M66.4,21.3v-1.6c6.8,0,8.1-2.4,12-9.5L80,11C76.2,18,74.5,21.3,66.4,21.3z"/>
		<path class="st0" d="M98.8,9h-5.4c-0.9,1.7-2.2,3.1-5.1,5.1l-1-1.3C92.7,8.9,92.7,7,92.7,4h1.8c0,1.7-0.1,2.5-0.3,3.3h6.5v1.5
			c0,4.7-3,8.4-10.9,13.3l-1-1.4C96,16.2,98.7,12.9,98.8,9z"/>
		<path class="st0" d="M116.4,19.4h8.8V21h-18.1v-1.6h7.7V4h1.6v5.8h7.1v1.6h-7.1V19.4z"/>
		<path class="st0" d="M143.9,15.8c1-1.9,0.9-4-0.3-5.8c-0.9-1.5-2.5-2.4-4.4-2.7c-0.1,2-0.3,3.8-0.8,5.5c-0.4,1.5-1,3.7-2.1,5.4
			c-1.5,2.2-3.6,2.3-5,1c-1.5-1.4-1.6-3.7-1.5-4.9c0.3-5.5,4.8-8.5,8.8-8.5c2.7,0,5.1,1.2,6.4,3.3c1.4,2.2,1.6,5,0.4,7.4
			c-1.5,3.1-4.2,4.5-7.6,4.7l-0.1-1.6C140.7,19.4,142.7,18.5,143.9,15.8z M137.6,7.4c-2.6,0.4-5.8,2.7-6,7c0,0.6,0,2.7,1,3.7
			c0.8,0.8,1.8,0.3,2.4-0.7c1-1.5,1.5-3.4,1.9-5C137.3,11,137.5,9.3,137.6,7.4z"/>
		<path class="st0" d="M163.6,7.7c0.4,0.4,0.9,0.9,1.3,1.2c0.9-0.8,1.6-1.6,2.4-2.6l1.2,0.9c-0.8,0.9-1.6,1.7-2.5,2.4
			c1.1,0.7,2.3,1.4,3.4,1.9l-1,1.4c-1.3-0.7-2.4-1.4-3.5-2.2v1.1h-2v2.9h5.3v1.4H163v4c0,0.3,0,0.7,0.3,0.8c0.3,0.2,1.2,0.1,1.5,0.1
			c0.4,0,1.8,0,2.2-0.3c0.3-0.3,0.4-1.6,0.4-2c0-0.1,0-0.1,0-0.2v-0.3l1.5,0.6c0,0.7-0.1,2.4-0.6,3c-0.6,0.7-2.7,0.7-3.6,0.7
			c-0.6,0-1.9,0-2.4-0.3c-0.7-0.3-0.8-0.9-0.8-1.6v-4.5h-2.9c-0.4,3.7-3.1,5.9-6.6,6.9l-0.8-1.4c2.8-0.7,5.4-2.4,5.8-5.5h-5.3v-1.4
			h5.3v-2.9h-1.6V11c-1.2,0.9-2.5,1.6-3.8,2.4l-1-1.3c1.6-0.6,3.1-1.5,4.4-2.6c-0.8-0.9-1.6-1.7-2.6-2.4l1.1-1
			c0.9,0.8,1.8,1.6,2.6,2.4c0.9-0.8,1.8-2,2.5-3.1h-4.8V4.1h7.1c0.5,0.9,1.1,1.8,1.8,2.6c0.8-0.8,1.6-1.6,2.3-2.6l1.2,0.9
			C165.5,6,164.6,6.9,163.6,7.7z M160.2,5.8c-1,1.8-2.4,3.4-4,4.7h8.5C163,9.2,161.4,7.6,160.2,5.8z M161.5,11.8h-2.9v2.9h2.9V11.8z
			"/>
		<path class="st0" d="M173.5,14.6l-0.8-1.4c2.1-2.9,3.3-6.4,4.1-9.9l1.5,0.4c-0.4,1.5-0.9,3.2-1.4,4.6v14.6h-1.5V11.7
			C174.8,12.6,174.2,13.6,173.5,14.6z M177.8,7.1h13.3v1.4h-13.3V7.1z M180.7,21.7v1.1h-1.5v-7.1h10.5v7.1h-1.5v-1.1H180.7z
			 M179.7,4.2h9.4v1.4h-9.4V4.2z M179.7,10h9.4v1.3h-9.4V10z M179.7,12.9h9.4v1.3h-9.4V12.9z M180.7,17.1v3.3h7.4v-3.3H180.7z"/>
		<path class="st0" d="M211.2,16v0.7c0,1.1-0.1,2.4-0.4,3.5c-0.3,1.3-1,2-2.4,2c-1.3,0-2.5-0.1-3.7-0.3l-0.2-2
			c1.1,0.3,2.2,0.5,3.3,0.5c0.9,0,1.2-0.4,1.4-1.2c0.2-0.6,0.2-1.4,0.3-2c0-0.2,0-0.4,0-0.6c0.1-1.7,0.2-3.9,0.2-5.5
			c0-0.6,0-1.1,0-1.7h-5.5c-0.3,5.8-2.1,10.3-7.4,13.5l-1.1-1.5c4.7-2.3,6.6-6.8,6.8-11.9h-6.5V8h6.5V3.7h1.7v4.1h7.1
			C211.4,10.5,211.2,13.2,211.2,16z"/>
		<path class="st0" d="M224.6,11.5h2.8v2.9h-2.8V11.5z"/>
		<path class="st0" d="M239.8,16.5l-1.1-1.1c1.2-1.2,1.6-2.9,1.6-4.5V6.9h7v5h-5.6C241.5,13.6,240.9,15.2,239.8,16.5z M239.3,4.1h9
			v1.3h-9V4.1z M254.3,22.9h-1.6v-1.1h-9.5v1.1h-1.6v-7.5h12.6V22.9z M245.8,8.1h-4.1v2.5h4.1V8.1z M252.7,16.7h-9.5v3.8h9.5V16.7z
			 M253.5,11.5c1.2,1,2.5,1.9,4,2.4l-0.9,1.5c-1.4-0.8-2.8-1.8-3.9-2.9c-1.1,1.2-2.5,2-4.1,2.6l-0.9-1.3c1.5-0.5,2.9-1.2,4-2.3
			c-0.7-0.8-1.3-1.7-1.8-2.6c-0.3,0.6-0.7,1.3-1.2,2l-1.1-1.1c1.4-2,2.2-4.3,2.5-6.7l1.5,0.4c-0.1,0.7-0.3,1.5-0.5,2.2h6V7h-1.8
			C255,8.5,254.4,10.2,253.5,11.5z M252.5,10.5c0.6-1,1.1-2.2,1.3-3.4h-3.1l-0.1,0.4C251,8.5,251.7,9.6,252.5,10.5z"/>
		<path class="st0" d="M273.5,7.7c0.4,0.4,0.9,0.9,1.3,1.2c0.9-0.8,1.6-1.6,2.4-2.6l1.2,0.9c-0.8,0.9-1.6,1.7-2.5,2.4
			c1.1,0.7,2.3,1.4,3.5,1.9l-1,1.4c-1.3-0.7-2.4-1.4-3.5-2.2v1.1h-2v2.9h5.3v1.4h-5.3v4c0,0.3,0,0.7,0.3,0.8
			c0.3,0.2,1.2,0.1,1.5,0.1c0.4,0,1.8,0,2.2-0.3c0.3-0.3,0.4-1.6,0.4-2c0-0.1,0-0.1,0-0.2v-0.3l1.5,0.6c0,0.7-0.1,2.4-0.6,3
			c-0.6,0.7-2.7,0.7-3.6,0.7c-0.6,0-1.9,0-2.4-0.3c-0.7-0.3-0.8-0.9-0.8-1.6v-4.5h-2.9c-0.4,3.7-3.1,5.9-6.6,6.9l-0.8-1.4
			c2.8-0.7,5.4-2.4,5.8-5.5h-5.3v-1.4h5.3v-2.9h-1.6V11c-1.2,0.9-2.5,1.6-3.8,2.4l-1-1.3c1.6-0.6,3.1-1.5,4.4-2.6
			c-0.8-0.9-1.6-1.7-2.6-2.4l1.1-1c0.9,0.8,1.8,1.6,2.6,2.4c0.9-0.8,1.8-2,2.5-3.1h-4.8V4.1h7.1c0.5,0.9,1.1,1.8,1.8,2.6
			c0.8-0.8,1.6-1.6,2.3-2.6l1.2,0.9C275.3,6,274.4,6.9,273.5,7.7z M270,5.8c-1,1.8-2.4,3.4-4,4.7h8.5C272.8,9.2,271.2,7.6,270,5.8z
			 M271.3,11.8h-2.9v2.9h2.9V11.8z"/>
		<path class="st0" d="M299.1,16v0.7c0,1.1-0.1,2.4-0.4,3.5c-0.3,1.3-1,2-2.4,2c-1.3,0-2.5-0.1-3.7-0.3l-0.2-2
			c1.1,0.3,2.2,0.5,3.3,0.5c0.9,0,1.2-0.4,1.4-1.2c0.2-0.6,0.2-1.4,0.3-2c0-0.2,0-0.4,0-0.6c0.1-1.7,0.2-3.9,0.2-5.5
			c0-0.6,0-1.1,0-1.7h-5.5c-0.3,5.8-2.1,10.3-7.4,13.5l-1.1-1.5c4.7-2.3,6.6-6.8,6.8-11.9H284V8h6.5V3.7h1.7v4.1h7.1
			C299.3,10.5,299.1,13.2,299.1,16z"/>
		<path class="st0" d="M309.9,20.6l-1.3,1c-1.5-1.9-1.7-2.5-1.7-5.3v-11h1.6v11C308.4,18.9,308.6,19.1,309.9,20.6z M316.6,19.1h4.8
			v1.6h-4.9c-3.4,0-4.4-2.1-4-5.6h1.7C313.9,18,314.4,19.1,316.6,19.1z M313.2,7.3h7.7V9h-7.7V7.3z"/>
		<path class="st1" d="M336.6,14.8c1.3,0.3,3.4,0.3,4.8,0.3h0.4c3,0,5.9-0.2,8.8-0.4c-0.3,0.5-0.6,1.1-0.7,1.8h-0.6
			c-1.3,0-2.5,0.1-3.8,0.1v1.4h5v1.7h-4.9v3.6c0,1.5-0.6,2-2.1,2c-1.3,0-2.5-0.1-3.7-0.2l-0.4-2c1.3,0.2,2.5,0.3,3.6,0.3
			c0.4,0,0.6-0.2,0.6-0.7v-3.1h-16.8v-1.7h16.7v-1.3h-1.1c-1.6,0-5.2,0-6.8-0.5c-1.4-0.4-2.5-1.2-3.5-2.2c-1.1,1.3-2.2,2.4-3.5,3.5
			l-1.1-1.8c1.4-0.8,2.7-1.7,3.8-2.8V9.1h-3.9V7.4h5.8v5.4C334.2,13.9,335.4,14.5,336.6,14.8z M328.6,2.1l1.2-1.3
			c1.3,0.9,2.5,1.9,3.6,3.1l-1.3,1.4h-0.1C331.1,4.1,329.9,3,328.6,2.1z M331.8,21.3l1.3-1.3c1.6,1,3.1,2,4.5,3.2l-1.4,1.5H336
			C334.8,23.3,333.4,22.2,331.8,21.3z M337.4,0.8l1.6-0.6c0.5,0.8,1,1.6,1.3,2.4h2.8c0.4-0.8,0.8-1.7,1.1-2.5l2,0.6
			c-0.4,0.7-0.7,1.3-1.1,2h5V4h-7.6L342,5.1h6.2v8.7h-12.2V5.1h4.4c0.1-0.3,0.2-0.5,0.2-0.8l0.1-0.3h-6.7V2.5h4.6
			C338.1,1.9,337.8,1.3,337.4,0.8z M337.7,6.4v1.2h8.7V6.4H337.7z M337.7,8.8V10h8.7V8.8H337.7z M337.7,11.2v1.3h8.7v-1.3H337.7z"/>
		<path class="st0" d="M364.4,22c-3.2,0-5.2-0.9-5.9-2.7c-0.4-0.9-0.3-1.8,0.1-2.6c0.7-1.2,2-1.8,4.2-1.9c1.2,0,2.4,0.3,3.5,0.7
			c-0.7-1.3-1.1-2.4-1.2-3.8h-7.1v-1.5h7c0-0.5,0-0.9,0-2.6h-7V6h7V3.3h1.6V6h3.8v1.6h-3.8c0,1.8,0,2.2,0,2.6h3.8v1.5h-3.7
			c0.2,1.7,0.7,3,1.9,4.1h0l-0.8,1.3c-1.1-0.3-3.5-0.9-4.8-0.9c-1.7,0.1-2.5,0.5-2.9,1.3c-0.2,0.4-0.2,0.8-0.1,1.2
			c0.4,1,1.4,1.5,3.1,1.7c1.3,0.1,3,0.1,4.7-0.1v1.5C366.4,22,365.5,22,364.4,22z"/>
		<path class="st0" d="M387.2,18.3c-0.1,2.4-1,3.6-3.4,3.6c-2.4,0-4.7-1.4-3.9-3.9c0.4-1,1.5-1.7,3-1.9c0.8-0.1,1.6-0.1,2.7,0.1
			v-3.9h-5.4v-1.5h5.4V7.5h-5.7V6h5.7V3.4h1.6V6h5.1v1.5h-5.1v3.3h4.8v1.5h-4.8v4.3c2.2,0.7,3.8,1.8,5.4,3l-1,1.3
			C389.6,19.4,388.4,18.8,387.2,18.3z M383.1,17.8c-0.7,0.1-1.5,0.4-1.6,1c-0.2,0.9,1.2,1.5,2.3,1.5c1.6,0,1.8-0.8,1.8-2.4
			C384.7,17.7,383.7,17.7,383.1,17.8z"/>
		<path class="st0" d="M410.6,8.2v6.6c0.1,4,0,4.5-3.4,7.9l-1.2-1.1c2.4-2.4,2.8-2.9,3-4.5c-0.5,0.4-0.9,0.6-1.8,0.5
			c-2-0.1-3.2-1.7-3.1-3.9c0.2-2,1.5-3.4,3.3-3.4c0.7,0,1,0.1,1.4,0.4V8.2h-9.4V6.7h9.4V3.9h1.6v2.8h5.1v1.5H410.6z M405.8,14
			c-0.1,0.9,0.3,2.2,1.5,2.2c1.3,0,1.7-1,1.8-2c0.1-1.2-0.5-2.3-1.6-2.3C406.4,12,405.9,13,405.8,14z"/>
	</g>
</g>
</svg>
