<?xml version="1.0" encoding="utf-8"?>
<!-- Generator: Adobe Illustrator 24.0.3, SVG Export Plug-In . SVG Version: 6.00 Build 0)  -->
<svg version="1.1" id="レイヤー_1" xmlns="http://www.w3.org/2000/svg" xmlns:xlink="http://www.w3.org/1999/xlink" x="0px"
	 y="0px" viewBox="0 0 812.7 84.1" style="enable-background:new 0 0 812.7 84.1;" xml:space="preserve">
<style type="text/css">
	.st0{fill:#FFFFFF;}
</style>
<g>
	<path class="st0" d="M0,83.8V0.4h70.1v83.4H0z M60.8,9.6H9.4v65.1h51.4V9.6z"/>
	<path class="st0" d="M138.3,84L89.7,16v68h-9.2V0.4h8.7l49.6,68.8V0h9.2v84H138.3z"/>
	<path class="st0" d="M158.4,83.8V0.1h9.4v74.8h54.9v8.9H158.4z"/>
	<path class="st0" d="M230.1,83.9V0.2h9.6v83.7H230.1z"/>
	<path class="st0" d="M308.4,84l-48.6-68v68h-9.2V0.4h8.7l49.6,68.8V0h9.2v84H308.4z"/>
	<path class="st0" d="M328.5,83.8V0.4h66.3v9.1h-56.9v27.4h53.6v9h-53.6v29h56.9v8.9H328.5z"/>
	<path class="st0" d="M438,83.8V0.4h66.3v9.1h-56.9v27.4H501v9h-53.6v29h56.9v8.9H438z"/>
	<path class="st0" d="M556.8,84.1h-18.8L510.6,0.3h9.9l25,74.2h4.2l24.9-74.2h9.7L556.8,84.1z"/>
	<path class="st0" d="M590.9,83.8V0.4h66.3v9.1h-56.9v27.4h53.6v9h-53.6v29h56.9v8.9H590.9z"/>
	<path class="st0" d="M725,84l-48.6-68v68h-9.2V0.4h8.7l49.6,68.8V0h9.2v84H725z"/>
	<path class="st0" d="M781.5,9.6V84H772V9.6h-30.4V0.4h71.1v9.2H781.5z"/>
</g>
</svg>
