<?xml version="1.0" encoding="utf-8"?>
<!-- Generator: Adobe Illustrator 24.0.3, SVG Export Plug-In . SVG Version: 6.00 Build 0)  -->
<svg version="1.1" id="レイヤー_1" xmlns="http://www.w3.org/2000/svg" xmlns:xlink="http://www.w3.org/1999/xlink" x="0px"
	 y="0px" viewBox="0 0 648.4 28.2" style="enable-background:new 0 0 648.4 28.2;" xml:space="preserve">
<style type="text/css">
	.st0{fill:#FFFFFF;}
</style>
<g>
	<path class="st0" d="M0,13.2h19.4v2.4H0V13.2z"/>
	<path class="st0" d="M27.1,6.1h10.1v1.8H27.1V6.1z M27.9,27.9v-10h8.2v8.5h-6.3v1.5H27.9z M28.3,2.2h7.5V4h-7.5V2.2z M28.3,10.1
		h7.5v1.8h-7.5V10.1z M28.3,14h7.5v1.8h-7.5V14z M29.9,19.7v5h4.4v-5H29.9z M47.4,1.3l2.2,0.8C48.8,4,47.9,5.9,47,7.7h4v9h-3.5v7.8
		c0,0.7,0.5,0.9,1.1,0.9c0.5,0,1.4-0.1,1.7-0.7c0.2-0.6,0.3-2.9,0.3-3.6l2,0.8c0,0.9-0.1,3.9-0.7,4.7c-0.7,0.7-2.2,0.8-3.1,0.8
		c-1.7,0-3.2,0.1-3.2-2.1v-8.7h-2.2c-0.1,4.5-1,8.5-4.9,11.3l-1.6-1.6c3.7-2.3,4.4-5.6,4.4-9.7h-2.8v-9h6.6
		C45.9,5.7,46.8,3.5,47.4,1.3z M39.1,2.6l1.8-1c1,1.5,1.7,3,2.3,4.6l-1.9,1h-0.1C40.7,5.5,40,4,39.1,2.6z M49,14.9V9.6h-8.7v5.3H49z
		"/>
	<path class="st0" d="M58.2,22.9V3.3h9.2v17.6h-7.2v2H58.2z M60.2,5.1v5.8h5.1V5.1H60.2z M60.2,12.7V19h5.1v-6.3H60.2z M67.5,28.1
		l-1.6-1.6c3.1-2.6,4.3-6.2,4.3-10.2V2.5h10.6v22.9c0,1.6-0.9,2.3-2.5,2.3c-1.3,0-2.5-0.1-3.7-0.2l-0.3-2.3c1.2,0.2,2.3,0.3,3.4,0.3
		c0.7,0,1-0.4,1-1.2v-6.4h-6.6C71.9,21.9,70.4,25.3,67.5,28.1z M72.1,9.2h6.6V4.4h-6.6V9.2z M72.1,16.1h6.6v-5h-6.6V16.1z"/>
	<path class="st0" d="M93.2,10.9C93.1,11,93.1,11,93,11l-0.3,0.2c-1.4,1.1-3,2-4.6,2.9l-1.4-1.7c5-2.3,8.7-5.9,11.5-10.7h2.5
		c2.8,4.5,7,7.7,11.9,9.8l-1.4,1.9c-4.6-2.4-8.8-5.5-11.7-9.8c-1.4,2.5-3.5,4.9-5.8,6.8h12.2v1.9H93.2V10.9z M94.9,24.3
		c3.7-0.3,7.3-0.6,11-1c-1.1-1.2-2.2-2.5-3.4-3.6l1.6-1.2c2.5,2.3,4.8,4.7,6.9,7.4l-1.8,1.5c-0.6-0.9-1.3-1.8-2-2.7l-0.4,0.1
		c-5.8,0.9-11.8,1.6-17.6,2.1l-0.7-2.2l4.2-0.3c1.2-2.1,2.2-4.3,3.1-6.6h-7.4v-2h22.6v2H97.9C97.1,20,96,22.3,94.9,24.3z"/>
	<path class="st0" d="M127.6,12.4h3.8v4h-3.8V12.4z"/>
	<path class="st0" d="M161.5,18.6l-1.1-1.7c4.6-2.7,6.5-3.6,6.5-5.5l-10.1,0.3v7.9c0,1.9,0.4,3.4,2.3,3.8c2.8,0.7,5.9,0.3,8.7,0.1
		v2.1c-2.7,0.2-8.7,0.7-11.4-1c-1.6-1.1-2-3.1-2-5v-7.9l-6.2,0.2v-2l6.2-0.2V2.1h2.4v7.6l12.5-0.4v1.6
		C169.3,14.3,166.4,15.7,161.5,18.6z"/>
	<path class="st0" d="M197.3,24.2l-1,2.1c-1.5-0.6-7-3.2-15.6-5.8l0.7-2.2C190.4,20.9,195.7,23.5,197.3,24.2z M183.1,5.2l0.8-2.3
		c6.4,2,10.8,4.1,13.1,5.1l-1,2.2C193.3,9,189.1,7.1,183.1,5.2z M195.1,14.9l-1.1,2.1c-1.6-0.8-5.2-2.6-10.7-4.3l0.7-2.2
		C189.8,12.3,193.9,14.2,195.1,14.9z"/>
	<path class="st0" d="M215,27.1l-1.9-1.5c5.1-6.2,5.9-8.2,5.9-13.9h-10.5V9.5H219V2.2h2.4v7.3h8.7v2.2h-8.7
		C221.5,18.4,220.2,20.8,215,27.1z"/>
	<path class="st0" d="M238.3,13.3h22.1v2.3h-22.1V13.3z"/>
	<path class="st0" d="M277.4,12.4h3.8v4h-3.8V12.4z"/>
	<path class="st0" d="M296.5,6.1h9.1v1.8h-9.1V6.1z M297.3,27.9v-10h7.5v8.5h-5.7v1.5H297.3z M297.6,2.2h6.8V4h-6.8V2.2z
		 M297.6,10.1h6.8v1.8h-6.8V10.1z M297.6,14h6.8v1.8h-6.8V14z M299.1,19.7v5h3.8v-5H299.1z M322.2,21v1.6h-2v2.8
		c0,1.5-0.7,2.2-2.3,2.2c-1,0-2-0.1-3-0.1l-0.3-2.1c1,0.2,2,0.3,3,0.3c0.5,0,0.7-0.2,0.7-0.8v-2.3h-9.1v5.2h-1.9v-5.2h-1.9V21h1.9
		v-7h5.4v-1.6h-7.2v-1.6h4.4v-2h-3.2V7.3h3.2v-2h-4V3.8h4V0.9h1.9v2.8h3.7V0.9h1.9v2.8h4.1v1.6h-4.1v2h3.3v1.5h-3.3v2h4.6v1.6h-7.5
		v1.6h5.6v7H322.2z M312.8,15.7h-3.6v1.9h3.6V15.7z M312.8,19.1h-3.6V21h3.6V19.1z M315.6,5.3h-3.7v2h3.7V5.3z M315.6,8.8h-3.7v2
		h3.7V8.8z M314.6,15.7v1.9h3.8v-1.9H314.6z M314.6,19.1V21h3.8v-1.9H314.6z"/>
	<path class="st0" d="M330.8,16.9l1.7,1.4c-1,3.3-2.4,6.4-4.1,9.5l-1.7-1.7h0C328.4,23.2,329.8,20.1,330.8,16.9z M326.8,10.6
		l1.3-1.6c1.5,1.2,2.9,2.5,4.1,4l-1.4,1.7h-0.1C329.6,13.2,328.3,11.8,326.8,10.6z M327.5,3.5l1.4-1.6c1.5,1.2,2.8,2.5,4,4l-1.4,1.7
		h-0.1C330.4,6.1,329,4.7,327.5,3.5z M339.2,22.7l1.5,1.4c-2.1,1.6-4.4,2.9-6.9,4.1l-1.5-1.9C334.8,25.5,337.2,24.4,339.2,22.7z
		 M349.5,6.3h-14V10h-2V4.5h7.7V0.9h2.1v3.6h8.3V10h-2V6.3z M334.8,12.4h6.4v-2.3h-5.1V8.4h12.6v1.7h-5.5v2.3h6.6v10.2h-15V12.4z
		 M341.3,16.6v-2.5h-4.5v2.5H341.3z M341.3,20.8v-2.6h-4.5v2.6H341.3z M343.2,14.1v2.5h4.7v-2.5H343.2z M343.2,18.2v2.6h4.7v-2.6
		H343.2z M343.7,24l1.6-1.4c2.4,1,4.6,2.2,6.7,3.5l-1.6,1.8h-0.1C348.2,26.4,346,25.1,343.7,24z"/>
	<path class="st0" d="M362.8,10.9c-0.1,0.1-0.1,0.1-0.2,0.1l-0.3,0.2c-1.4,1.1-3,2-4.6,2.9l-1.4-1.7c5-2.3,8.7-5.9,11.5-10.7h2.5
		c2.8,4.5,7,7.7,11.9,9.8l-1.4,1.9c-4.6-2.4-8.8-5.5-11.7-9.8c-1.4,2.5-3.5,4.9-5.8,6.8h12.2v1.9h-12.8V10.9z M364.4,24.3
		c3.7-0.3,7.3-0.6,11-1c-1.1-1.2-2.2-2.5-3.4-3.6l1.6-1.2c2.5,2.3,4.8,4.7,6.9,7.4l-1.8,1.5c-0.6-0.9-1.3-1.8-2-2.7l-0.4,0.1
		c-5.8,0.9-11.8,1.6-17.6,2.1l-0.7-2.2l4.2-0.3c1.2-2.1,2.2-4.3,3.1-6.6h-7.4v-2h22.6v2h-12.9C366.7,20,365.6,22.3,364.4,24.3z"/>
	<path class="st0" d="M397.2,12.4h3.8v4h-3.8V12.4z"/>
	<path class="st0" d="M437,7.6c0,8.8-4.2,12.7-12.6,19l-1.6-1.8c8.3-6.1,11.6-9.6,11.7-16.6h-15V5.8H437V7.6z M439.7,6.3
		c-1.7,0-3.2-1.4-3.2-3.1c0-1.7,1.5-3.2,3.2-3.2c1.7,0,3.1,1.5,3.1,3.2S441.4,6.3,439.7,6.3z M439.7,1.3c-1,0-1.8,0.8-1.8,1.9
		s0.8,1.8,1.8,1.8c1,0,1.9-0.8,1.9-1.8C441.6,2.2,440.7,1.3,439.7,1.3z"/>
	<path class="st0" d="M449.6,25V5.9h18.8V25H449.6z M451.9,8v14.9h14.2V8H451.9z"/>
	<path class="st0" d="M489,19.5c0,1,0.1,2.6,1.1,3.6c0.8,0.8,3.2,0.8,4,0.8c1.4,0,2.8-0.1,4.3-0.2v2.1c-1.6,0.1-3,0.2-4.5,0.2
		c-1.6,0-3.5,0.1-5-1c-1.8-1.3-2.2-3.7-2.2-5.4v-4.9h-7.9v-2.1h7.9V7h-4.8V4.8h15.1V7H489v5.4h10.1v2.1H489L489,19.5z"/>
	<path class="st0" d="M507.9,13.3H530v2.3h-22.1V13.3z"/>
	<path class="st0" d="M548.7,4.8v2.3H541V4.8H548.7z M541,12.8v-2.2h7.7v2.2H541z M558.3,14c-3.1,6.4-5.8,11.9-14.3,11.9h-2.2v-2.2
		h2.2c7,0,9.1-4.6,12.2-10.7c0.8-1.6,1.5-3.1,1.5-3.1l2.1,1C559.7,10.9,558.6,13.3,558.3,14z"/>
	<path class="st0" d="M574.1,17.6v-2.1h9.8v-4.6h-10.7V8.8h12.9v16.3H573V23h10.9v-5.4H574.1z"/>
	<path class="st0" d="M608.4,5.7V8h-8.3V5.7H608.4z M600.9,25.8v-2.2c9.3,0,11.1-3.3,16.3-13l2.1,1.2
		C614.2,21.3,611.9,25.8,600.9,25.8z"/>
	<path class="st0" d="M629,13.2h19.4v2.4H629V13.2z"/>
</g>
</svg>
